<svg xmlns="http://www.w3.org/2000/svg" width="57.23" height="50.37" viewBox="0 0 69.85 61.47"><path d="m56.61.04-2.98.02-.17.32c-1.66-.08-1.28.1-1.96.2-.58.1-.39-.13-.94.17-.37.2-.42.24-.9.23a2 2 0 0 1-.22.34h-.02c-.03-.03-.07-.12-.36.06-.24.17-.24.26-.27.3h-.01c-.04.03-.15.02-.53 0l-.18.34c-.94-.04-.38.04-.9.33q-.2.09-.22.07h-.01l-.01-.02h-.02l-.16.13c-.07.06-.07.2-.28.33-.93.52.06-.36-1.52 1.02l-.6.62c-.55.56-.27-.1-.78.54l-.95.68c-.26.14-.33.06-.58.34-.49.56.15.22-.49.73l-1.85 1.9c-.4.55-1.26 1.2-1.74 1.72-.3.34-.3.57-.68.94 0-.63-.13-1.04.21-1.53-.5-.42.05-.9 0-1.63s-.18-.07-.22-.8c-.02-.3 0-.8.02-1.13l-.34-.16c.07-1.21-.38-1.28-.7-2.05L33.9 1.82c-.38-.33-.9-.34-1.32-.51-.15-.06-.2-.04-.21-.03h-.01c-.01-.02-.03-.1-.15-.31-.46.02-.28.06-.63-.08-.44-.2-.3-.04-.7-.12-.25-.05-.22-.1-.24-.13V.62c-.03-.02-.1-.04-.37-.06-.54-.04-.4.04-.68.15L28.22 1c-.26-.02-.34-.04-.37-.06l-.01-.01-.01-.05Q27.8.85 27.62.8c-.16-.04-.64-.01-.82-.01-.76 0-1.1-.42-1.92-.42-.7 0-1.71-.08-2.3.14l-2.2.96-3.19 3.93-.03.07-.43 1.2c-.06.26-.1.23-.14.24v.01c-.03.03-.05.1-.06.35-.02.47 0 1.18.02 1.66l-.33.15.02 5.22c.17.24.2.22.22.22h.01l.09.38.41 1.5c.14.33.18.43.18.85h-.92l-.16-.24-.07-.1-.07-.16c-.77-.03-.53-.05-.77-.15-.26-.1-.53-.07-.86-.05-.24-.4-.2-.22-.64-.4-.38-.13-.57-.07-.98-.12-.2-.02-.27-.05-.3-.07v-.06h-.01q-.02-.04-.29-.07c-.12-.02-.4 0-.53 0l-.15-.33-2.3.02-.14.33c-.92-.04-.4.07-.86.17-1.12.23-.28-.34-1.5.44l-.43.18-.26.24c-.24.13-.17 0-.38.14l-.02.02-.12.14-1.05 1.69-.06.2h-.01c-.02 0-.07 0-.23.1.03 1.2-.2.07-.2 2.45v1.33c.01.83.22.16.2 1.12l.32.15c-.09 1.05.25.82.38 1.47.03.15 0 .55 0 .7l.25.18.04.06.03.07.1.2.03.07.2.5.07.15c.2.42.22.35.5.6l.16.16c.08.16.06.24.07.44.63.03.76.48 1.2.83.5.4.33.74.99 1.15l.26.14.05.05.76.77.04.06.72.4c.28.18.23.36.23.68-.15 0-.22 0-.37.03l-.14.07-.07.03c-.45.19-.29 0-.53.39l-.7.12c-.37.2-.47.28-.94.27-.33.55-.14.1-.6.4l-.82.3c-.12.2-.13.26-.13.28-.02-.01-.08-.02-.26.05-.15.06-.1.03-.2.1l-.22.2-.13.17c-.3.37-.24.05-.88.65-.23.22-.53.28-.72.5l-.67.44-.06.04c-.7.52-.45.8-1.06 1.28l-.05.05c-.29.23-.46.57-.67.85l-.05.06-.06.04a3 3 0 0 0-.52 1.62c-.46.28-.19.13-.38.63l-.1.2c-.15.48.03 1.1.1 1.26l.85 1.5c.12.12.03-.01.23.16l1.33 1.4.06.05.26.25c.27.22.61.29.84.58l.27.45c.75.02 1.3.43 2.03.4l.15.34c.1-.02.29-.04.35-.03.54.08.17.22.91.2 1.07 0 .76.4 2.65.2.52-.03.17-.08.53-.17.21-.05.46-.02.68-.01l.04.15h.01q.02-.01.16.05l-.33.37c-.1.1-.22.33-.35.59h-.03v.05a2 2 0 0 1-.52.79c-.65.45-.44.5-.68.86-.09.13-.14.12-.17.15-.05.06-.05.23-.05 1.25.89 0 .7-.25 1.01-.3.52 0 .54.05 1-.13.43-.16.88-.1 1.3-.32l.07-.04.05-.05.2-.2c.33-.23.62-.18 1.04-.18 0 .25.03.34-.05.56l-.5 1.62a7 7 0 0 0 0 2.3h.01l.02-.02h.02q.03.04.08.23c.03.1 0 .16.03.27l.05.18.03.05.1.2c.27.52.24.36.52.6.16.15.37.8.68 1.15l.84.79c.15.17.18.32.42.5l.62.39.06.05.08.05h.02l.1.04.16.05.14.07 1.34.68.06.03-.02.01.18.05c.88.18 1.85-.1 2.74 0 .45.06.29.34.9.2q.2-.05.23-.07v-.02l-.03-.03v-.01c.03-.02.1-.04.32-.07.09 0 .22.02.3 0 .54-.06.16-.2.93-.2l.15-.32c.6.04 1.45.14 1.9-.16.38-.26.44-.16.68-.54.37 0 .35.06.62-.1l.24-.16c.86-.55 1.47-.74 2.27-1.4l.05-.03c.28-.2.4-.13.78-.14l1.5-1.85c.3-.25.27-.28.74-.28 0 .6.04.32.14.58.22.54-.1.6.45 1.07l.36.56c.42.83.68.68.68 1.55.5 0 .78-.14.96-.56.1-.23.02-.14.07-.33.27-.94.1-.6.2-1.04l.6-1.1c.2-.49-.03-.7.6-.93.39.28.9.95 1.36 1.3.53.42.9.28 1.05.6l.1.08.09.05.1.06.6.26.13.04.12-.12c.46.33.18.21.78.24h.06l.05.01.1.01h.15l.06.01h.63l.04.01h.07v-.01H43c.53-.05.46.44 1.1.32.11-.06.15-.03.16-.02.01-.02 0-.08.06-.28.14.27.24.43.88.3q.2-.09.23-.12v-.03l-.04-.02v-.03l.22-.1 1.29-.45c.57-.4.86-.37 1.36-.67l.12-.08.05-.05.05-.05.83-.8c.1-.12.04-.07.14-.17.59-.65.16-.7 1.28-1.15l.4-.22c.25-.2.6-.12.88-.23.46-.2.7-.16 1.14-.5l.42-.2.08-.03.13-.05.84-.37c.28-.12.33-.1.5-.31.2-.22.3-.22.51-.3l.14-.07.01-.01.01-.01.2-.1.09.18 1.1-.9q.06-.15.05-.18h-.04l.13-.17c.17-.24.9-.64.97-1.15.08-.62-.03-.36-.12-.57-.19-.48 0-.42.08-.61.13-.33.02-.41.06-.75q.04-.28.07-.3v-.01h.07q.03-.02.06-.3 0-.3-.02-.32h-.02l-.03.03h-.02l-.01-.01a2 2 0 0 1-.09-.72c-.04-.75-.27-.06-.19-1 .86-.02 1.07-.06 1.11-.11v-.02c0-.06-.13-.12.2-.2.75 0 .56-.4 1.2-.4.4-.1-.09-.11.72-.5q.2-.11.35-.17c1.7-.67.27-.13 1.66-1.18l.71-.5.05-.06.8-.27.36-.22.04-.24-.23-.08c.27-.25.2-.12.25-.52.71-.05.25-.16 1-.25l.2-.08-.02-.3.21-.1v-.1l.2-.1v-.1l.01-.31c.3-.2.11 0 .36-.25q.19-.2.17-.24v-.01h-.01l-.01-.01v-.01l.2-.1v-.1l.3-.1V39l.22-.1c.15-.61.68-.6.7-1.31l.02-.3h.19v-.11l.01-.2h.3v-.23l.2-.04c-.05-.28-.1-.25-.14-.26h-.01c-.03-.04-.05-.13-.05-.5q-.1-.2-.13-.22h-.01v.01l-.03.04h-.02l-.12-.22c0-.35-.02-.44-.04-.47-.04-.03-.09-.01-.15-.26-.13-.57-.08-.61-.44-1.1l-.24-.3h-.02l-.2-.14-.05-.05c-.69-.62-.54-.13-1.18-.86-.14-.16-.07-.1-.28-.22l-1.08-.44-.14-.12v-.01h.07v-.01l-.21-.1c-.32 0-.73.03-1.03 0-.28 0-.37-.03-.4-.06v-.07c-.03-.03-.12-.05-.4-.06.01-.78.68-.78.84-.9.29-.2-.16-.16.64-.46.97-.37.85-.56.85-.98-.6 0-.3-.04-.57-.14-.7-.28-.62.23-.87-.27v-.3l.27-.1c.63-.26 1.17-.7 1.88-.8V27c.24-.22.32-.4.6-.51h.3v-.1a1 1 0 0 1 .27-.37l.62-.6c.3-.34.24-.53.7-1.12l.3-.33.04-.05c.53-.6 0-.23.29-.93.22-.57.16-.7.15-.72l.2-.05c-.02-1.02-.4-1.28-.42-2.13-.33-.17-.25.12-.33-.78l-.2-.21q-.14-.05-.16-.04v-.01q.01-.01-.01-.2h-.3c-.05-.8-.14-.32-.44-.89-.82-.03-.52-.08-.77-.24-.24-.15-.48-.2-.73-.5-.17-.2-.2-.27-.23-.28h-.01c-.04 0-.13.06-.64-.15-.36-.14-.93.02-1.3-.12-1.05-.42-1.26.04-1.88.07-.85.04-.5.08-1.33.2q-.25.07-.27.1v.02l-.02.05q0 .04-.21.13c-.63 0-.65-.07-1.18.15-.65.26-.5.42-.86.56-.97 0-.82.4-1.55.58-.24.06-.22-.02-.43.08l-.15.1v.05l-.22.09c-.3.1-.48.2-.9.22 0-.7-.07-.5.45-.87.4-.31.08-.3.64-.68l1.65-2.3c.14-.3.06-.27.15-.47l.8-1.23c.33-.57.28-.35.26-1.07.42-.24.41-.4.52-.9.13-.63.2-.4.2-1.22l.33-.28c-.05-.83.17-.9.18-1.66 0-.66.2-.43.2-1.72 0-.67.16-1.7-.06-2.28l-.15-.35c-.12-.3-.2-.44-.19-.84-.5-.3-.4-.45-.53-1-.14-.62-.3-.52-.63-.98-.42-.54-.65-.52-1.27-.67-.45-.1-.5-.2-1.04-.17zm-51.1 17 .03-.05v-.01l-.15.11v.01h.01q.03 0 .1-.06M55.2.76c.47 0 .93 0 1.23.05-.17.47-.46.16-.5 1.14l-.5.34v.52c-.22.15-.32.1-.36.1h-.01v.01h-.01c-.02.04-.02.14-.04.4.3.18.25.1.65.1.1-.22.05-.15.13-.37.14-.36.13-.58.5-.83.43-.3.54-.68.6-1.22 1.2-.07.68-.04 1.2.3q.1.07.12.07l-.04-.04.1.07c1.05.77.66 1.3 1.23 1.6-.02.93.44 1.14.4 2.16.49.33.29.15.32.9-.72.5-.07 1.44-.4 2.23-.24.56-.03.72-.12 1.2-.09.46-.26.3-.18 1.07l-.33.17c0 .66-.2.77-.38 1.35-.17.55-.28.49-.51 1.1-.28.74-.42.9-.7 1.36-.06.12-.03.13-.1.3-.14.34-.3.48-.51.7-.16.16-.27.54-.6.92l-.56.56c-.19.2.02.14-.2.4l-.24.18c-.2.2-.14.23-.35.46-.34.37-.44.34-.82.8-.15.19-.37.3-.54.39-.5.28-.83.79-1.28 1.15-.2.16-.26.27-.4.43l-1.01.6c-.42.16-.89.94-1.27 1.17-.25.15-.17-.1-.54.28-.58.58-.38.44-1.22.8-.1.05-.28.1-.3.1-.27.16-.1.16-.4.4-.26.22-.2.1-.47.4-.06.73.13 1.67-.2 2.22l-.5.7c-.34.7-.78.79-1.25 1.2a5 5 0 0 0-.6.62c-.7.8-.82.2-.7 1.74.42.13.8.26.87.74l-1.54.03c-.1.23 0 .13-.16.38-.13.24-.1.2-.37.3l-.19-.07v-.02l-.11-.15c-.31-.35-.49-.38-.72-.77l-1.5.02c-.2.44.16.26-.34.65-.58.47-.46.32-.62.33 0-1.38-.3-1.65.68-2.48.36-.3.33-.67.5-.94.15-.25.55-.4.64-.78.09-.4 0-1 .03-1.43.73-.1.35-.28 1.17-.21l.02.74c-.22.2-.87.8-1.03 1.02q.05.37.1.38H41l.1-.05h.01v.01q.05.02.08.26c.12.82-.28.7.37 1.2.22.18.33.19.68.18.26-.38.31-.43.8-.56.03-1.24.28-.04.33-1.51.6-.48.4-.97.73-1.3l.86-1.07.37-.64.3-.41.03-.07.52-.7c.22-.3.07-.35.17-.75l1.16-.06c.04-1.07-.61-1.07-1.5-2.11-.69.54-.98 0-1.08 1.53 1 .6.3.17.94.7-.38.45-.03.34-.35.64-.22.2-.5.2-.82.15-.15-.1-.16-.54-.76-1.06s-.64-.21-1.18-.13c-.14.03-.48 0-.64 0 0-.7-.08-.4.26-.9.79 0 1.16 0 1.67-.44.07-.06.3-.24.42-.3v-.82c-.29-.23-.42-.3-.6-.6-2.21-.03-1.2.2-1.82.3h-1.13c-.1.6-.18.2-.26.82.28.33.36.33.69.5l.2.1q-.01.01.14.16c.42.4.02.34-.08.65-.05.2.02.46-.03.67-.4 1.65-.44.59-1.3 1.35-.3.28-.34.36-.71.5-.03.73.1 1.3.7 1.65v.56c-.62.3-.69.27-1.38.25-.15-1.52.18-1.37.2-2.13.01-3.15-.1-1.78.43-2.6l.6-1.08.1-.1c.18-.27-.08-.38-.35-.54l-.2-.12c-.68-.5-.4-.13-.8.06-.3.15-.13-.08-.5.3-.4.4-.46.33-.75.82.28.64.2.42.21 1.2.37.12.4.1.43.1.02.02.05.06.27.23v1.2c0 .65 0 .55-.14.96-.13.36-.01.8-.05 1.2-.05.55-.22.09-.2.89-.13.13-.16.13-.18.14l-.12.16c0 .04-.1.23-.16.3-.16.28-.36.4-.46.63-.09.46.56.58-.08 1.18l-.48.68q-.05.1-.08.12h-.02l-.04.18c-.03.16.02.48 0 .6l-.04.3v.01h-.01c-.02 0-.07-.04-.22.02-.13-.07-.19-.04-.21-.04h-.01v-.01l-.02-.38v-1.64c0-1.52.14-1.05.24-2.06 1.03-.12-.06-.27.96-.35.06-.3.49-1.01.64-1.24-.56-.5.11-1.38-1.6-1.53-.1-.35-.2-.35-.45-.6.18-.54.22-.1.22-.82 0-.7.67-1.82-.48-1.93l-.03-.31v-.01h-.01l-.18-.11.19-.4c-.33-.27-.22-.94-.18-1.41l.24-.27h.89c.28-.34.37-.59.77-.76v-.6c-.5-.32-.19-.17-.76-.3-.13-.03-1.08-.42-1.87-.11-.58.24-.7-.05-1.14.42l.07.18.02.01.06.13c.07.2.02.22.1.4.32.86 1.12.5 1.06 1.9.44.45.3.26.33 1.15-.42.27-.2.18-.55.53l-.43.5-.2.2h-.01c0 .02-.02.07-.16.32s-.25.25-.3.57c.22.24.24.14.45.33.3.26.98.13 1.37.14.04.6-.12.56.24 1.02l-.17.37-.26.57c-.11.6.04.99.43 1.35q.2.18.21.16l.08.22c.15.82-.27.86-.32 1.22-.02.23.02.54 0 .82l-.93-.21-.18-.07v-.02h.01v-.01l-.18-.06c-.1-.02-.36-.02-.5-.03a5 5 0 0 1-.03-.73c.04-.63.22-.87.7-1.23.07-1.14.5-.58-.25-1.57-.25 0-.9-.04-1.1 0-.36.04-.23.14-.77.22-.06.73-.23.5-.73.97l.01 1.08.66.6c1.16-.04.05-.28.93-.3.05.45.08 1-.07 1.38-.17.4-.1.8-.11 1.3.46.55.37.19.7.47s.04.32.56.74c-.52.4-.31.84-.35 1.46l-.64-.04c-.56-.23-.02-1-.04-1.12l-.4-.9c-.05-.16.03-.06-.08-.28h-1.81l-.3.78-.05.2h-.01l-.02.03c-.16.4-.1.72-.11 1.2l.5.65.84.09c-.17.18-.22.37-.46.4-.67.15-.66-.18-.92-.7h-.52c-.25-.34-.15-.31-.68-.31-1.21 0-.71-.07-1.17.23-.2.12-.4-.03-.6.4s-.35.5-.32 1.06c.43.23.48.46.75.6l.64.38c.02 0 .13.05.23.12v.52c.41.22.4.57.72.9-.1.28-.13.28-.15.3l-.06.25c-.05.24.03.09-.07.36l-.05.11h-.01v-.01l-.04.1c-.17.5.24.2.13 1.06-.12.23-.88.47-1.08 1.34-.1.46.27 1.35.47 1.76l.82.03c.05.47.02.48-.14.8-.18.38 0 .14-.3.48-.87 0-.75.03-1.36.57V47c.74.63.96.65 1.84.06v-.57c.19-.13.24-.13.25-.13l.06-.15c-.28-.51-.8-.67-.26-1.61l.04-.07c.09-.13.45-.33.56-.55.13-.25.08-.31.1-.36 0-.04.09-.09.43-.26.47-.25.03-.1.56-.4l-.03-.66h-.57c-.16-.27-.38-.44-.42-.67 0-.9-.12-.4-.22-1.03.33-.2.1-.04.4-.16.21-.1.05-.06.4-.18.2.2.1.16.4.24.04.42 0 .58.29.9l1.5-.01c.53-.67.92-.57.7-1.46-.13-.52.76-.34 1.15-.36.67-.03.22-.28.77-.38 0-.7-.16-1.22.67-1.23.18 1.72-.3 1.68-.16 3.22h1.35c.8-.98 1.1-.8 1.22-1.9.32-.1.16 0 .4-.23a3 3 0 0 0 1.04.93c.3.14.14.43.67.3l.2-.06-.03-.02v-.03q0-.03.06-.06l.06-.05.07-.05c.23-.13.32-.14.35-.13h.01c0-.04.05-.16.28-.53.26-.4.1-.28.33-.72.22.1.29.11.3.12-.01.02-.1.05 0 .31l.55.9c.95.03 1.19-.4 2-.4l.14-.24c.02 0 .06 0 .22-.1.54-.3 1.4-.1 2-.16.4-.05.08-.03.5-.2l.82-.5.06-.03.32-.26-.03-1.17h-1.27c-.29.28-.29.19-.62.38-.13.08-.36.39-.43.45-.2.2-.4.19-.62.4-.6.6-.4.5-1.28.47-.1-1.22.25-1.01-.51-1.9-.42.1-.05.17-.72.2-.15-.25-.15-.29-.15-.3v-.01l-.19-.19a1 1 0 0 1-.28-.47c.23-.3.19-.24.5-.4v-.9a1.4 1.4 0 0 1-.58-.48l-.6-.02c-.1-.3-.05-.2-.26-.4.06-.18.08-.18.1-.24.16-.37.05-.4.35-.54l.28.11v.01l-.02.02c-.03.03-.04.1.08.3.15.24.91.76 1.1.78.36.05.36.03.59-.31h.71l.93-.95c.63-.5.5.03 1.7-1.24.32-.34.12.05.6-.32.37-.3.6-.6.93-.95h.72c.48-.67.24 0 .68-.47.25-.26.02-.13.22-.4.56-.71.8-1.16.32-2-.27 0-.52-.02-.75.06-.35.12-.05.16-.67.14-.23.25-.73.55-.83.9-.04.17 0 .2-.04.37l-.06.15h-.03l-.01.01-.04.12c-.08.28.03.35.17.54l-.42.3-.71.72c-.15.2-.1.23-.09.27q.02.03-.14.2c-.37.44-.2-.04-.58.35-.34.34-.04.18-.54.38-.59.23-.82.4-1.27-.15l.5-.21.08-.08v-.01l.17-.06.52-.2c.47-.44.55-1.6.13-2.05l-.07-.07-.09-.07c-.14-.11-.2-.14-.34-.3.03-.58.12-.46.42-.82l.19-.43.23-.27c.17-.28.25-.87 1.44-.9.24-.47.6-.43.81-1.02.41-1.06-.2-.83-.02-1.46.1-.33.58-.46.8-.6l.7-.64c.42-.53.41-.24.98-.74.43-.38 1.14-.64 1.33-1.22l.75-.15c.37-.15.52-.11.67-.56 1-.01 1.27-.42 2.2-.4.13-.23.14-.3.14-.3h.01c.02 0 .06.03.25-.04.55-.21 1.01-.67 1.13-.7.47-.06.67.08.9.5l.29-.13c.09-.03 0-.04.22-.06 0-.52.02-.4-.3-.63l.52-.2c.26-.1.25-.1.6-.1.7.03.29.2 1.13.23.22-.5-.08-.24.28-.55.53-.46.3-.38.93-.37.32.36.26.13.3.68.74.1.4.33 1.2.2.03-.33.01-.44-.01-.48h-.02c-.05 0-.14.11-.2-.2 2.81-.1 1.86.06 2.79.8-.27.3-.3.24-.5.61-1 0-.4-.14-.73-.5l-.25-.16c-.21-.1-.07-.05-.34-.04l-.04.59.6.55.05.05.05.05c.14.12.1.1.26.2.3-.17.28-.37.74-.56l.37.4c-.68.76-.84.16-1.21.84-1.7 0-.24.33-1.82.42-.25.84-1 .24-.93 1.2 1.1.13.42-.13.98-.43.33-.17.1.1.5-.21.38-.3-.09-.25 1.27-.24.25-.42.15-.37.6-.54.32-.12.36-.18.83-.17.2-.35-.1-.28 1-.35 0-.43-.23-.66-.58-.84-.77-.4-.7-.25-.6-.74.73-.04.14.16.95.2l.02.48c.2.02.2 0 .34.07.6.26.79 1.46.76 1.96.34.27.3.15.33.7-.14.11-.17.11-.19.12l-.1.12-.16.33c-.18.45.1.76-.4 1.35l-.92 1.3a3 3 0 0 1-1 1.03c-.69.4.03.13-.86.57-.91.46-.9.7-1.55 1-.3.13-.35.1-.38.1h-.01c-.03.01-.05.06-.2.22-.5.6-.13-.04-1.07.66l-.11.09c-.23.12-.1-.04-.37.14l-.27.24c-.28.15-.33.08-.35.07h-.02l-.16.31c-1.02 0-1.2.62-2.15.6-.3.34-.47.53-1.32.52-.43 0-.58.02-.98.23l-.12.08c-.6.44-.38.05-1.23.2-.47.08.02.2-.7.2-1.74.06-.55.25-1.79.18l-.15.32c-.48.02-.58.04-.62.07-.02.03 0 .07-.22.13-.4.09-.14-.12-.76.13-.47.19-1.22.1-1.76.08-.4.4-.43.37-1.46.55l.04.37.9-.14c.27-.14.33-.1.7-.05l.02.49-.36.03.03.56c-.27.23-.7.28-.9.4-.4.27-.07.5-.7.65-.58-.22-.27-.36-.5-.66-.1-.14-.26-.13-.52-.56-.18 0-.66-.03-.8-.01l-.22.03v.01h-.01c-.02.03-.01.1-.16.28-.63-.03-.39 0-.87.26-.05.89-.52 1 .06 2.09 2.33.03.86.08 2.09-.4l1.4-.62c.14-.13.16-.32.52-.51.67-.35.9.2 1.75.1q.42-.03.58-.38c.5-1.14.38.25.47-1.9 1.12-.32.58.3 1.78-.58.22 0 .84.05 1.02 0l.78-.22c.64-.2.91-.25 1.91-.13l.36-.35 2.18-.02.29.34c.58 0 2.37-.1 2.8.03l1.06.36c.24.05 1.13 0 1.43 0 .2.16.19.2.21.22s.07.04.27.12l.59.22c.21.1.29.2.44.4l.19.24h.01c.02 0 .06-.03.27.06.37.18.12.18.49.35.32.14.24-.07.47.35.3.52.15.64.59 1.03v1.34c-.44.38-.37.8-.88 1.36-.2.23-.21.45-.42.69-.31.34-.21 0-.49.53-.27.54-.64.74-1.03 1.2-.4.47-.41.17-.7.42l-.52.5c-.25.2-.35.4-.54.58-.26.24-.47.2-.7.43-.47.52-.23.15-.65.46-.38.27-.97.9-1.87 1.3-.58.25-.96.62-1.56.58l-.2.33c-.87 0-.54-.1-1.32.23-.48-.31-.67-.41-1.1-.83-.24-.24-.62-.66-.85-.86-.63-.57-.35-.32-1.07-.61-.2-.08-.46-.17-.66-.26-.45-.2-.14-.1-.46-.34-.8.05-.47.04-1.08-.15-.32-.1-.72.03-1.07-.05-.77-.17-.72-.28-2.17-.15l-.36-.36c-1.45.1-1.59.18-2.47-.9h-.68c-.3.26-.29.37-.7.53-.56-.06-.3-.14-.65-.21h-2.18c.32.46 1.8-.12 2.2.2l-.8.02c.04.03.08.03.1.09q.04.05.09.06c.4.16.47.08.5.07h.01q.03.02.11.2l-.04 1.13.45.4.05.06c.69.6 1.5-.63 1.9-1.06.63.26 1.4.16 2.13.14l.28.33c2.23 0 1.52.15 2.13.2.53.05.45-.11 1.01.12.38.15.6.08 1.04.07.46.42.2.2.76.46.58.29.27.22.94.28.23.32.38.4.53.59s.2.48.44.69c.33.3.26.08.58.54.26.38.2.24.65.36.08.73.23.64.2 1.4.48.52.57.45 0 1-.11.32.3 1.27-.79 2.2-.84.74-1.45 1.67-2.5 2.07-.86.32-.55.58-1.54.78-.4.09-.28.14-.53.2-.4.07-.2-.11-.71.11-.36.14-.14.08-.62.1l-.77.34c-.3.3-1.05 1-1.16 1.32-.28.76-1.13 1.03-1.22 1.1-.25.15-.01.1-.33.25-.16.08-.17.07-.2.07l-.21.15c-1.11.83-2.5.33-2.91.53l-.27.3-1.74.02-.3-.33c-1.5 0-.94-.4-1.8-.73-1.15-.46-1.1-.3-1.44-1-.1-.23-.38-.43-.56-.65-.45-.56-.4-1.2-.62-1.82-.16-.42-.07-.45-.09-.5s-.08-.1-.31-.3v-2.5c.23-.35.2-.08.33-.47l-.7-.77c.35-.16.26-.17.47-.3.28-.18.2-.02.47-.23.88-.7.67-1.08.68-2.1l-.32-.25c-.02-.28.04-.6-.05-.87-.13-.4-.19-.06-.17-.7.42-.21.78-.33 1.27-.3.58-.48.73-.23 1.1-1 .23-.5.3-.2.27-.9-.33-.17-.4-.17-.53-.55-.76-.07-.22-.22-.95-.24-.98-.02-1.38.65-2.07 1.3.55 1 0 .86-.45 1.14q-.17.11-.16.16v.02q.03.03.05.02h-.33c-.12-1.3.14-.8-.2-1.24l-.04-.06-.04-.06c-.03-.03-.1-.27-.15-.37l-.53-1c-.12-.15-.06-.11-.16-.3-1.13-.03-.85.94-1.39 1.63-.69 0-.91-.07-1.47.42l-.83.9c-.22.23-.26-.15-.2 1.17.18.09.25.08.47.17.27.12.79.16 1.11.04.3-.11.62-.24.75-.54.22-.54.34-.26.53-.8.12-.33.02-.1.22-.42.32 0 .67-.04.93.12l.24.19c.02.47-.03.97 0 1.45.03.5.06.16.17.52.25.8-.1.36.75 1.1-.35.52-.18.7-.22 1.33l-.68.76c.22.35.29.57.14 1.04-.17.5-.47.8-.47.82.03.65-.15.94-.23 1.54-.52.64-.25.05-.42.92-.34.22-.33.17-.46.52-.22.58-.06.2-.5.54-.4.3-.06.33-.34.67-.36.45-1.16.93-1.5 1.54-.2.4-.15.28-.4.6-.15.17-.24.44-.38.65-.96.02-.7.33-1.4.74-.65.4-.82.48-1.53.64-.32.63-.97.48-1.4.98-1.26-.03-.45.13-1.95.18-.57.02-.16.2-1.93.2-1.25 0-2.76.23-3.87-.36-.35-.18-.24-.27-.63-.48-.16-.1-.69-.28-.72-.3l-1.05-1.06c-.27-.38-.34-.25-.6-.53-.17-.2-.25-.45-.38-.63-.43-.56-.6-.62-.63-1.4-.22-.16-.27-.17-.29-.18.02-.03.02-.09-.06-.27-.42-1.06.1-.83.03-2.07l.3-.2c.06-.7.1-.4.2-.91q.1-.47.29-.83c.65-1.05.57-.67.67-1.46.84-.5.18-.52.78-.94.44-.31.46-.53.86-.87 1.02-.87 1.47-.47 2.4-1.1.05-.52-.04-.7.5-.98.6-.3.5.04.9-.6.15-.12 2.37-.4 2-1.38-.25 0-1.32.43-1.59.58l-.17.12v.02l-.1.1c-.25.14-.14.04-.37.14s-.5.17-.66.32c-.66.65-.37.33-1.28.73-.7.3-.11.62-1.3.73l-.2.3c-.44-.03-1.28.32-2.14.4-.53.04-.24.13-.63.2-.68.12-1.8.02-2.53 0-.63 0-.23-.05-.61-.17-1.02-.3-1.7.53-2.98.03-.51-.2-1.02.08-1.56-.16-.57-.24-.62-.32-1.34-.3l-.21-.33a1.6 1.6 0 0 1-1.3-.55l-.24-.3c-.04-.01-.08.02-.34-.08-.31-.12-.2-.24-.37-.38-.32-.28-.58-.05-1-.84-.53-1-1.3-.97-1.3-2.25.01-1.93.05-1.05.52-2.13.45-1.05 1.18-1.7 1.9-2.57.18-.21.33-.2.5-.4.2-.2.12-.26.37-.46.32-.25.23-.2.48-.44.18-.17.32-.16.61-.3.4-.18.3-.23.54-.37l1.7-.95c.33-.23 1.14-.38 1.57-.67.35-.23.4-.11.92-.38.65-.33.8-.23 1.54-.22.3-.3.1-.27.66-.36l.34.37c.23-.01.62-.04.83-.02l.99.25c.24.07.09.08.28.13.2.07.42.03.68.03l.27.32c1.14-.07.76.02 1.55.19.8.17.57.2 1.44.2l.19.32c.6-.04.26-.03.68.13.27.1.27.04.61.1.42.42.08.5.75.46v-.96c-.6-.2-1.4-.46-2-.46l-.25-.32a2.5 2.5 0 0 1-1.4-.27c-.51-.22-.78-.12-1.4-.12l-.25-.32c-.68 0-.5.05-1.08-.16-.34-.11-.66.03-1.02-.1-.14-.05-.14-.07-.15-.1-.03-.02-.09-.03-.3-.05-.5-.05-.87-.13-1.2-.52a3 3 0 0 1-1.39-.44c-.44-.27-1.35-1.35-1.72-1.76-.2-.23-.3-.2-.4-.5-.14-.32.14-.2-.36-.46-.75-.42-.45-.32-1.02-.82-.2-.18-.27-.2-.29-.21V28h-.01c0-.03-.02-.09-.1-.28-.12-.28-.13-.23-.34-.47a4.3 4.3 0 0 1-.97-2.5l-.3-.17-.01-.01v-.01c0-.04.05-.1-.04-.36-.3-.87 0-.6-.3-1.43-.15-.4-.1-2.08.01-2.4.2-.5.1-.12.14-.7a1 1 0 0 1 .2-.58c.18-.3.19-.11.41-.5.37-.63.6-.84 1.22-1.2.44-.27.52-.6 1.08-.63 1.13-.05.67-.2 1.45-.2.4-.54.52-.26 1.41-.32l.3.36c.36-.22.46-.68.8-.04.84.03.32.16 1.64.2.47.02.28.07.71.2l.29.09v.02q-.01.04.21.22c.87-.03.56.07 1.22.2.6.1.74.46.9.5.6-.01.75.1 1.24.3.45.18.54.14.81.59 1.33.1 1.43.77 2.34 1.63.22.2.88.77 1.05.99.23.29.26 1.06.8 1.15l.04-.62-.3-.18c0-.03.02-.09-.1-.38a5 5 0 0 0-1.3-1.75c-.26-.2-.23-.35-.47-.55-.2-.17-.48-.23-.64-.38-.37-.33.08-.2-.58-.44-.47-.18-.24-.13-.8-.2a3 3 0 0 1-1.01-2.03l-.31-.2c.04-1.06-.4-1.36-.4-2.33V9.62c0-.9.14-.57.2-1.11.06-.41-.08-.9.03-1.28.13-.43.13-.6.48-.85.04-1.1.43-.75.7-1.28l.45-.92c.13-.26.1-.05.3-.27.25-.24.16-.45.53-.78.6-.52.83-.83 1.53-1.12.56-.23.05-.27.79-.53.42-.16.44-.18.72-.5.33 0 .72.03 1.04.02.58-.03.28-.14.8-.23.65.12.3.22 1.25.2l.27.34c.6-.01.85.15 1.44.2l.1.69c.57.04.87-.1 1.2-.5.8.02 1.14-.57 1.82-.38.6.16-.09.1.94.18.58.05.14.22.93.2.38.45.02.17.6.4.41.16.36.05.74.18.22.25.2.3.22.33.03.03.08.04.33.14.26.1.38.26.56.5-.16.38-.23.23-.17.78l1.15.04c.15.6.5 1 .45 1.58.5.4.2.13.35.67.12.46.18.15.18.86 0 .27-.04.77 0 1 .03.43.13.23.22.73-.1.35-.18.3-.22.53-.04.17.02.5 0 .7-.08.56-.26.24-.16 1.26l-.37.26c.05.6-.28 1.02-.39 1.54-.02.13 0 .4 0 .6l-.32.2c.05.69-.37 1.05-.4 1.72-.25.2-.4.2-.5.5l.66.03c.65-.8.3-.13.8-1.14.08-.15.1-.2.15-.34.18-.47.36-.36.56-.87.1-.22.35-.33.47-.55.48-.92.04-.37.83-1.5l.51-.92q.13-.28.16-.29h.02l.04.01c.03 0 .09-.03.21-.22.24-.36-.15-.27.36-.65.22-.15.47-.44.75-.56.37-.15.53-.54.77-.77.25-.24.23-.06.5-.41a1.2 1.2 0 0 0 .29-.63c.68-.02.27-.12.87-.55.33-.23.45-.55.75-.67.41-.18.45-.36.76-.67.13-.13.28-.18.44-.27.21-.1.22-.16.23-.17h.01v-.01l.23.03.02.87c.35 0 .66-.1.72-.42.13-.83-.15-.64-.3-1.02l.4-.42a16 16 0 0 1 2.02-1.33l.35-.15q.03 0 .05-.05c.34-.24 1-.57 1.57-.57l.15-.3h.01c.03 0 .09.03.37-.08l.76-.13c.17-.3.24-.14.53-.52 2 .08 1.73-.2 2.34-.2zm-13.79 39.1v.02-.01zm-6.5-21.88h.53c.64 0 .34-.05.76.3-1.05.55-.53.18-1.18.1-.33-.05-.27.05-.64-.08l.01-.28q.25-.04.52-.04m8.54 2.55c.1.14.36.49.48.57-.33.38-.55.7-1.16.5-.1-.03-.36-.23-.51-.3-.35-.2-.36.02-.34-.51zm-4.18.91.26.02c.02.28.03.37.01.4v.01h-.01c-.04.03-.12 0-.27.24-.4.6-.11.54-.9.5 0-.33.11-.7.3-.92.14-.21.36-.25.61-.25m6.67.72.64.26-.07.42c-.24 0-.3.02-.32.01-.02-.02-.03-.06-.18-.13-.18-.1-.15-.07-.36-.2zm-10.71.18.54.04c.04.6-.02.28-.45.77q-.3.38-.92.39c-.03-.42 0-.44.31-.7.3-.26.27-.23.52-.5m7.86 1.24c.9-.02.34.15 1.12.22.06.75.58.93-.04 1.57-.26-.07-.6-.23-.78-.45l-.58-.56.04-.51zm5.15.7c.2.1.21.16.46.28l.02.5c-.3.27-.37.17-.58.63l-.82-.01c-.06-.7.31-1.23.92-1.4m-6.91.41.76.03v1.12c-.34.24-.12.1-.46.26-.32.14-.3.22-.32.26s-.15.04-1.01.03c-.05-.55-.14-.8.26-1.17.3-.28.31-.2.36-.18h.01c.04 0 .13-.05.4-.35m-4.47 1q.28-.02.57.36l-.65 1.3c-.55.55-.5-.13-1.3-.64l.41-.5c.45-.33.74-.5.97-.52m6.23.02h.56c.26.28.28.3.57.48l-.05.19v-.04h-.02q-.03 0-.07.07l-.5.7c-.19.4.01.7-.93.6-.08-.8 0-1.4.44-2m-9.6.7c.29 0 .3.02.7.35-.1.2-.15.26-.17.27H34v-.01h-.03l-.08.14c-.11.24.14.13-.17.44-.45.44-.18-.25-.7.44l-.95-.02c-.04-.56 0-.24.13-.58.11-.28-.03-.17.18-.44l.72-.58zm5.36 1.82.7.02c.08.36.1.62-.03.92-.42-.15-.28-.2-.62-.44zm3.62.01.34.67c-.14.57-.57.8-1.18.73-.06-.6-.16-.53.26-.73l.01-.01c.02-.42-.05-.31.12-.65zm8.1.03h.15a1.25 1.25 0 0 1-1.38 1.37v-.53c.11-.14.15-.16.32-.26.66-.37.6-.55.9-.58m-4.93.85c.15-.01.24.29.62.62.01.88.12.56-.46 1.35l-1.12-.02c-.03-.5.03-.34.29-.6l-.33-.28c-.24-.2-.08-.03-.38-.23.6-.5.2-.46 1.04-.48q.24-.37.34-.36m-7.47.35.85.03c0 .42.09.3-.33.57-.4-.04-.51-.17-.52-.6m-3.7.4h.04c.05.03.05.16.28.4.25.26.09 0 .5.25v.45c-.06.04-.71.3-.77.32-.56.1-.67-.14-.73-.18-.19-.34-.12-.34-.12-.76l.1-.27c.02.01.06.06.28-.03.26-.11.37-.18.43-.18m3.08.71c.48.03.58-.08.76.37.24.6.29 1.12-.1 1.59-.1.13-.5.34-.66.4-.75-.77-.63-.12-.63-1.58l.1-.25c.02 0 .06.01.22-.17zm-2.6 1.23q.15 0 .3.03c.24 2.33-.28 1.5-.17 2.13.05.27.11.06.2.43-.34.47-.16.5-.87.43v-.01c-.07-.62-.02-1.3-.03-1.94 0-.8.05-.98.45-1.06zm5.65.19c.5.04.65.14 1 .35v.96l-1 .55c-.75-.8.11-.67-.61-1.26.34-.18.34-.3.61-.6m-8.8.03c.97-.02.93.3.95.77-.17.12-.36.2-.49.38-.38.49-1.07 1.09-1.44.2 0-.65.04-.24.5-.73.2-.2.3-.4.49-.62m12.02.48.46.01c.64 0 .43-.1.85.27 0 .3-.16.45-.32.65l-1.48-.03.03-.62c.24-.23.3-.28.46-.28m6.56.61c.2 0 .42.07.59.4l.05.08c.08.2.02.34 0 .54l-.97-.02.02-.96zm-14.25.3.54.05c.5.62.2.54-.23 1.05a3 3 0 0 1-.65-.3c.04-.3.2-.54.34-.8m2.99 0c.19.3.16.34.15.35v.01c.03.02.1.05.32.22-.79.58-.54.64-1.75.52V34l.63-.56zm6.87.93c.3 0 .67-.02.77.32.09.28-.31 1.4-1.57 1.28-.09-.97-.12-.54.8-1.6m-12.97 0 .41.03.42.64c-.1.33-.05.05-.18.4-.05.15-.03.19-.02.21v.02q.01.01-.17.19c-.27.28-1.77 1.02-.96-1.26.39-.13.25-.23.5-.23m7.4.05c.14.5.07.46-.15.78.8.8.2 1.08.2 1.94-.31.24-.45.38-.79.5-.38-.4-.24-.02-.42-.47 0-.36.07-.83-.06-1.13l-.21-.4c-.07-.14-.1-.16-.1-.17-.02-.02-.02-.07-.05-.25.59-.38.48-.15.97-.5l.35-.17q.14-.06.15-.1v-.01h.01q.02-.02.1-.02m-10.84.14.27.48c-.48.42-1.65 1.34-2.1.3l.04-.75zm11.73.01h1.16l.55.58-.44.62-1.27.03c-.16-.17-.26-.22-.43-.35V35c.26-.3.15-.03.43-.45m-4.45.29c.09 0 .18.03.37.14l-.16.26q-.36.44-.94.54c-.25-.25-.28-.2-.34-.6v.01c.38-.24.29-.04.73-.23q.24-.11.34-.12m-1.5.72c.13.22.1.26.2.36.29.38.24.4.23.43v.02c0 .03.04.08.21.27-.15.44-.2 0-.22.68-.3.14-.44.4-.83.26-.19-.07-.42-.37-.56-.52-.05-1.55-.05-1.44.97-1.5m-4.54 0 .15.01c.54.03.53.3.56.79l-.87.84-.76-.03.03-1.33c.4-.11.56-.26.89-.27m7.25.02c.29.07.7.4.76.66-.14.55-.86.47-1.38.42-.06-.61.1-.87.62-1.08m-4.32.92.41.65-.08.2h-.01l-.17.12c-.42.35-.32.65-.7.64-.4 0-.15-.2-.77-.63.24-.55.27-.01.34-.76.69-.08.12-.23.98-.22m7.77.17c.74.06.4.22 1.03.27l.26.4c-.38.3-.33.36-1.61.24l.04-.61zm-9.8.6c.2 0 .41.18.45.2-.4.35-.02.16-.3.6-.33-.38-.07-.06-.5-.3.05-.38.2-.5.35-.5m6.8.14.29.03c.37.47.36.48-.1.86-.53.42.02.32-1.97.3v-.01c-.02-.42-.08-.33.24-.6a2 2 0 0 1 1.55-.58m9.37.01h.28c.08.59-.06.57-.5.71-.9.32-.52.28-.86.46-.04-.63.14-.24.2-.95.82-.09.79-.16.81-.2h.01v-.01h.06m-3.89 0h.22v1.35c-.4.16-.57.37-.78.76-.15-.21-.2-.28-.23-.3h-.02c-.03 0-.07.07-.38-.13.08-.91.52-1.1.56-1.1.33-.32.2-.54.63-.57m-12.82.7.33.35c.22.53-.61 1.18-1.16 1.26-1.11.17-.27-.9-.22-1.38.76-.07.27-.24 1.05-.23m2.93 0c.09.03.51.24.56.27a1 1 0 0 1 .42.5c-.54.38-.75.46-1.62-.14.23-.27.32-.48.64-.63m6.32 0 .17.01q.2.02.23.05v.01l.02.04c.02.02.07.06.3.1.07.64.12.33.24.75-.29.4-.25.37-.64.68-.55-.22-.05-.18-.75-.25l-.07-.24-.16-.18c.15-.46.17-.1.23-.73.33-.08.3-.16.3-.2h.01v-.01l.01-.01q.02-.02.11-.02m-7.91.18c.09 0 .2.03.42.05l-.03.88-.85-.01c-.02-.23-.04-.5.15-.72.14-.16.2-.2.31-.2m5.17.93c.32.43.14.14.43.45-.23.1-.3.13-.33.16v.01c.02.04.1.1-.05.35-.04.07-.29.34-.36.45l-.86-.02v-.74c.22-.3.33-.36.52-.65zm-5.52.72.77.03-.03.98-1.07.03-.27-.4c.3-.35.33-.25.6-.64m-2.8 1.07.24.25.05.06.24.72c-.14.14-.18.2-.2.23v.02h.01c.01.04.07.08-.07.35l-.95-.05c-.08-.42-.1-1.07.03-1.42.38 0 .37-.03.64-.16m16.83.16c.22.25.07.15.39.27q-.19.16-.21.16h-.01l-.08.22-.07.2c0 .01-.04.03-.21.26l-1.03-.04c.11-.17.14-.2.28-.35l.2-.22c.2-.15.22-.1.27-.1.04 0 .13-.05.47-.4m-7.4.73c.13 0 .23.08.52.19l.24.09c.02.01.03.05.2.2-.1.42-.48.75-.74 1.12l-1.37-.02-.02-.76c.3-.3.14-.3.53-.53a2 2 0 0 1 .63-.3m-4.39.44q.04.01.06.06l.03.06c.03.22.02.1 0 .27zm-1.53.68c.26.58.58.69-.12 1.28s-.6.02-1.17.62c-.15-.36-.32-.36-.23-.74l.2-.34.85-.5c.4-.16.22 0 .47-.32m3.76 1.22c.5.54.76.45.8 1.27-.45.27-.27-.05-.6.34-.46-.42-.79-.06-.84-1.1.28-.3.4-.29.64-.51m-8.35 1.43c.87.03 1.02.85.13 1.1l-.34-.25.03-.85zm7.76.73.03.03zm1.37.65.05.63-.53.05-.12.28-.58-.04c-.05-.82.1-.18.5-.85z" style="fill:#000;fill-opacity:1"/><path fill="#fefefe" fill-rule="evenodd" d="M32.44 48.89c-1.22.2-.31.6-1.76.53-.7-1.33-.1-2 .47-2.52.82-.72 1.1-.07 1.8.44l.02.79c-.49.4-.47.16-.53.76m-16.29-2.84c.13.22.16-.3.08.16l-.08.18c-.12-.28-.16-.04 0-.34m-2.46-.71c.35.16.25-.1.27.56 0 .38.05.46-.15.68-.22-.35-.44-1-.12-1.24m-5.27-.22c.31.3.38.28.27.74h-.33c-.05-.41-.08-.41.06-.74m-3.62.22c.53 0 .46.1.68.46-.28.1-.35.08-.68.05zm5.65.14c.23-.2.34-.31.44.1-.44.29-.35-.03-.44-.1m6.54-.48.15.16.09.18-.45.05-.03-.46zm-9.87.09c.22-.25-.06-.28.31-.02-.15.07.01.17-.31.02m11.48-.6.26.17c.08.13.14-.15.07.28l-.73.05-.03-.56c.5-.08.22-.05.43.07m-5.8-.06c.28.05.14-.12.22.18-.48.06-.06-.06-.22-.18m-3.36-.2c-.01.5.13.47-.4.34.15-.23.12-.24.4-.33m7.42-.24c.22.19.24.3 0 .44-.15-.24-.17-.2 0-.44m-1.02-.25.06.46-.55.06-.03-.57c.4-.06.27-.08.52.05m-4.37-.26c.38.34.36.2.21.56-.4-.13-.4-.16-.2-.56m2.54-.5c.07.12.27-.25 0 .33-.12-.26-.16-.03 0-.34m1.33-1.58.25.07c-.34.22-.16 0-.25-.07m38.99-1.66-.02-.45.69-.07.02.52zm.92-.25c.09-.58.38-.38.85-.55.15-.05.9-.38.73.6-.47.03-1.17.1-1.58-.05m-2.85 0-.02-.4c.52-.18.77.15.69.65-.33-.08-.03-.03-.3-.14-.16-.06-.2-.04-.37-.11m7.02-.45-1.53-.01v-.35c.34-.13.4-.03.73-.06.58-.04.19.03.5-.31h.56c.06.4 0 .5-.26.73m.55-.2-.06-.46 1.04-.28q.63-.05.9.37c-.31.52-1.22.39-1.88.36m3.61-.7c-1.1 0-.61.05-.97.2-.08-.34.08-.5.27-.74h.97c.03.3-.06.37-.27.54m.83-.54-.02-.33.47-.07.03.42Zm-48.99-7.53c.09.16.28-.26 0 .34-.11-.23-.16-.04 0-.34m3.67-.36c.1-.5.5-.58.79-.94.7-.03 1.05.06 1.56.47.06 1.4-.41 1.3-.56 1.5-.35.44-.07 0-.12.35h.55l.15-.48.54-.15c.44-.22.3-.28.52-.38.19.1 0 0 .14.12l.61.46c.02.38-.09 1.04-.4 1.26-.47.36-.69-.17-.7.94.53.38.4.36.64.57.36-.13.21-.22.56-.5.8-.6 1.98.15.92 1.79.18.22.26.5.4.68l1.2 1.06c.45.28.42.12.46.73.65.04.61.23 1.03.6l.52.3c.86.57.05.88-.34 1.3.06.64.23.1.19 1.02-.43.38-.37.18-.61.35l-1.02.75c0 .22.04.63.01.83-.07.55-.13-.07-.22.65-1.1.15.13.38-1.15.33-.3-.56 0-.13-.47-.37v-.52c-.42-.3-.34-.15-.3-.8.33-.16.5-.37.77-.66.88-.02.36.12 1.03.22.55-.52.2-.67 1-.76l.17-.57.04-.07c-.38-.01-1.1.14-1.28-.3-.02-.47.07-.82-.14-1.16-.44.07-.24-.05-.43.3-.09 0-.33 0-.4.03-.46.1 0 0-.3.12-.22.09-.08.03-.31.07l-1.18.27c-1.18.42-.46-.2-1.07.37l-.26.23a2 2 0 0 0-.45.54c-1.33.07-.78.06-1.65-.44l-.23-.12c-.01-.52-.05-.16.34-.76.42-.65.72-1.02 1.35-1.03.84-.02.39.1.95.24.05.5.06.34.24.65l.66.03c.54-1.04-.03-1.1.32-1.94.15-.37.08-.26.13-.68l1-.34c-.12-.3-.2-.25-.44-.6l-.92.02c-.35-.41-.3-.17-.26-.8-.3-.2-.3-.16-.34-.6-.3-.04-.32-.07-.52-.2l-.82-.6c-.32-.23-.26-.14-.7-.15-.65-.7-.34-.55-.8-.73-.32-.13-.13-.1-.43-.18-.42.28-.42.4-.78.57-.3.15-1.3.36-1.5-.13-.2-.43.08-1.34.23-1.76.07-.22.08-.04.06-.24-.02-.16-.16-.02-.09-.57l.44-.02c.23.55-.22.3.33.5.94-.02-.1-.48 1.14-.27.04.44 0 .57.25.9.25.32.4.24.6.5.31.38 0 .3.6.53.5.18.45.13.75.5.16-.2.16-.24.33-.43l-.68-.67c-.54-.6-.47-.03-.55-.8l-.38-.07c-.04-.93-.37-.42-.72-.86m-6.1-.47c.23-.12.3-.13.52 0-.03.13.1.25-.24.26-.46 0-.22-.18-.28-.26m3.26-.2.44-.3c.3.38.43.3.16.77-.27-.08-.45-.3-.6-.48m1.2-.23c0-.04.22-.2.16.06q-.1.36-.16-.06m-5.39-.18c.12-.21.13-.28.44-.08-.11.42-.22.3-.44.08m-1.45-.16c.17.45.29.29.44.7-.33.02-.34-.04-.87-.27-.47-.2-.45-.05-.95-.16.1-.85.64-.3 1.38-.27m3.1-.25v-.45h.91c0 .5-.5.56-.91.45m1.6-.63c0-.04.22-.2.17.06q-.1.35-.16-.06m-3.55-.88.51-.07.02.33-.52.08zm-2.55 0c.35-.18.37-.13.53.09-.14.33.18.25-.45.25zm-.9.2c.35-.18.2-.08.42.02-.3.2-.18.23-.42-.02m4.9-.25.69-.01V27c-.4.03-.12.1-.45-.07-.32-.17-.15-.1-.24-.3m-3.46-1.22c.18.05.81.7.15 1.02-.23-.17-.16.05-.19-.45q0-.3.04-.57m2.4.28c.24.42.22.06 0 .44-.13-.3-.19-.08 0-.44m43.24.3c.14-.5.05-.13.47-.4.25-.16-.13 0 .22-.17.56-.3 1.07-.56 1.48-.36 0 .06.04.14-.12.3l-.18.12c-.44.32-.23.18-.89.44-.48.19-.55.35-.98.07m-45.06-1.33c.18.35.2.2 0 .56-.32-.24-.31-.32 0-.56m47.95 0c-.01-.46.2-.62.67-.57.07.5-.2.63-.67.58m-35.2 3.36c-.25-1.7.4-1.3.68-2.17l-.28-.44-.57-.01c-.26-.76-.49-1.35.01-2.35.7-.01 1.03-.17 1.41.56.48.9-.36.74.1 1.84.3.73.01.23.53.74.37.37.24.73.02 1.16-.16.34 0 .03-.3.3-.58.52-.8.86-1.6.37M8.93 24.07c.21.42.2.06 0 .44-.3-.2-.4-.2 0-.44m50.62-.5.67.02-.04.5-.67-.05zm-33.2-.48c.3-.04 1.19-.53 1.42.05v1.62c.16.35-.06.1.3.32.01.6.1.8.22 1.3.24.97.2.88.53 1.16.48-.35.16-.34.62-.53l.36-.15a1 1 0 0 1 .5 0c.55.17 1.18.8.93 1.43-.38.92-.51.59-.6.84-.13.3.4.95.18 1.4l-1.22 1.24c-.17.12-.1.03-.29.1-.55.26-.58.16-1.5.16-.07.66.08.64-.13 1.14l-.11.3c-.1.27-.35.37-.8.89h-.57c-.34-.4-.32-.5-.77-.77-.15-3.15.45-.85.27-2.44l-.92-.04c-.34-.62-.48-1.7.04-2.34l.1-.1c.27-.28.2-.21.68-.23a2 2 0 0 1 .35.5c.6 1.2-.26 1.26-.18 2.13.82 0-.05-.41.82-.3.67.1-.24.4.94.3.07-.92-.55-.61-.72-2.06-.33-.2-.5-.36-.68-.68 0-.6-.06-1.15.24-1.58.6-.88.24-.75.97-.9-.02-.01-.06-.06-.07-.04l-.92-.45c-.03-.5.06-.84-.11-1.25-.3-.72-.01-.54.12-1.02m-18.14.53c-.17-.23-.12-.1 0-.27.13.2.13.04 0 .27m53.3-.95c.05.36-.09.56-.36.72-.51-.08-.17-.02-.54-.44l.26-.3zm.44 0c-.25-.46.1-.9.61-.65-.03.44.02.18-.2.4-.15.16-.12.2-.41.26m-31.55-1.7c-.36.17-.23.09-.52.39-.21.22-.44.34-.48.55v.9c.15.36-.05.1.3.32 0 .8.06.38.25.93.28-.3.57-.72 1.1-.7l.48.88c0 .5-.35.88-.44 1.46-.59.05-.62.36-1.24.2a1 1 0 0 1-.68-.75c.1-.22.24-.27.21-.6-.06-.57-.16 0-.21-.6-.03-.33.06-.5-.05-.8-.13-.4-.12-.16-.17-.77-.28-.07-.23-.07-.42-.23 0 0-1.27.08-1.6-.46-.13-.22-.13-.3-.11-.6.01-.28.07-.34.17-.52.24-.43.26-.2.83-1.28 1-.03.6-.5 1.4 0 .46.29-.24.3 1.38.3.07.78-.15.6-.2 1.39m29.1-2.1h.33c.4.46.42-.08.38.72l-.7-.02zm-22.08-.22c.42-.42.99-.41 1.57-.5.47-.08.03-.1.51-.18.48.48.89.8 0 1.83l-1.62-.02c-.36-.53-.47-.42-.46-1.13m23.75-.07c.19.07.29.27.37.49l-.3.03c-.17-.3-.15-.1-.07-.52m-30.34-.01.7.02c0 .4-.27.5-.7.47zm31.45.28c-.06-.7-.04-.3.4-.71l.31.3c-.28.34-.16.47-.71.4m-29.82-.47h.49c-.06.28-.18.44-.49.49zm-5.15-.21c.18.4.05.3-.12.43-.26-.32-.27-.33.12-.43m17.44-.3.1.14-.4.14.05-.5c.27.13.04-.03.25.23m-12.36-.64c-.21-.16-.15-.17-.35-.48h.42zm-5.47-.7c.3.16.2.25-.06.4zm18.47.19c-.1-.85.03-.23.62-.73l.3.42-.3.33zM32.3 14.62l.44.52-.49-.03zm-3.96 0c.28.15.23.33 0 .5-.11-.26-.13-.25 0-.5m-2 .37c.26-.1.24-.17.53 0-.08.08.07.15-.27.14-.5-.02-.03.03-.26-.14m20.36.87c-.23-.38-.05-.64.08-1 .16-.43.19-.5.71-.43.04.37 0 .34-.18.86l-.2.3c-.3.33.07.14-.4.27m-13.05-1c.03-.32.18-.4.46-.45l.29.4c-.33.17-.35.18-.75.05m13.86-.67c-.04-.4-.1-.5.12-.8.21-.3.14-.24.56-.18.06.6-.01 1.04-.68.98m-18.82-.4c-.3.27-.1.2-.37.4l-.28-.4.3-.31zm-2.76-.6.42.03-.07.48h-.34zm8.42-.12c.24-.23.16-.23.44-.26l-.1.7zm-1.63 0c.28-.18.07-.12.26 0-.3.24-.07.18-.26 0m15.77.1c-.19-.22-.17-.42-.04-.74l.49.04c.06.36.09.23-.04.54zm-17.24-.9c.27.32.4.2.22.7-.32 0-.48-.13-.68-.32q.16-.25.46-.37m-5.84.15c.07-.17.27-.27.5-.36l.02.4zm2.65-.2c.17-.4.13.07.2-.48v-.6l.41.03c-.1.34-.09-.02-.23.49l.21.33c-.37.28-.08.35-.6.22m7.24-1.54c.2 0 .43.15.52.35a2 2 0 0 1-.52.3zm-1.58.17c.25.12.2.04.1.3-.23-.12-.22-.04-.1-.3m16.36-.72.67.02c.03.33.13.4-.5.97-.4.36-.49.48-1.1.43-.04-.65.05-.14.22-.7l.66-.06zm-22 .04c.31-.06.17-.1.41.06-.08.25-.12.28-.4.4zm3.96-.94.4.02c.08 1-.14.02-.2 1.6l-.71-.05c0-.56.3-.46.5-.9zm-7.04.8c.38-.35.1-.08.28-.52l.45.05c.04.8-.22-.12-.31.8l.53.17v.29c-.77.08-.33-.12-.95-.8m26.4-.8c.18.35.14.36-.1.5-.3-.11-.3.08-.2-.5Zm-15.9-.9h.51v.89h-.5zm-7.37.9c-.1-.27-.12-.45 0-.7q.45.24.3.7zm6.24-.32c.27-.2.2-.16.44 0-.27.23-.2.25-.44 0m-10.36-.6.51.04-.06.69-.47-.06Zm3.76-.88c.57-.08.82.72 0 .88zm-4.18-.03-.01.7c-.68.04-.32.04-.71-.4.38-.31.09-.32.72-.3m-2.64.16c-.02-.4-.06-.36.21-.54.28-.2.12-.17.51-.1v.68Zm5.08-.7.35.43-.38.3-.31-.34Zm9.11.53c-.15-.45-.03-.4.21-.7.14.06.34.2.48.3-.65.5-.19.4-.69.4m-2.19-.04c.04-.4.32-.5.72-.43-.11.35-.28.55-.72.43m-3.7-.88.65.05c.04.66-.46.75-.93.26zm-1.48.05c.28-.04.41.08.51.36l-.52-.04Zm4.21.37c-.4-.1-.48-.25-.45-.7l.52.02Zm-9.3-.45q.05-.53.62-.43v.46Zm-2.57-.48c.35.26.48.18.41.7-.53.05-.38.05-.73-.32Zm4.4.05c.45-.1.24-.08.54.06l-.52.4zm10.28-.74.72.02-.01.48-.72-.05Zm-13.46-.02c.33.24.3.15.31.52h-.32c-.12-.3-.12-.26.02-.52m12.54-.16v.36l-.42-.04v-.34Zm-15.26-.3c.2-.04.54-.26.73.57-.32.16-.35.14-.75.06Zm32.78-.04c.17.34.15.36-.1.52-.31-.13-.4-.14-.11-.53Zm-23.35.4c.2-.15-.02-.2.27 0-.34.27-.1.15-.27 0m20.71-.8c.46 0 .6.2.57.7h-.6zm5.53.44-.36.29c-.13-.2-.17-.27-.34-.44.43-.36.22-.36.92-.27.05.6 0 .27-.22.42m-2.1-.36c.27-.15.23-.18.52 0-.09.08.1.14-.29.13-.44-.02-.04 0-.24-.13m-23.5.27c-.01-.62-.01-.14.47-.48l.19-.18c.2.4.01.15.38.4-.34.28-.53.4-1.04.26m-5.57-.46c-.32.16-.32.24-.44-.11.44-.28.34-.04.44.1m-3-.4c.24.28.21.25 0 .53-.14-.28-.15-.24 0-.53m4.38.1c.25-.18.3-.2.55 0-.26.22-.32.2-.54 0m29.47-.07-.2.1-.14.06c-.17-.28-.24-.18-.2-.6l.68.03c.03.44.08.23-.14.4m-5.03-.43-.01.38-.55.27c-.25.13-.39.53-.77.66-.35.12-.44.03-.62-.1.08-.46.69-.8 1.16-.81.12-.32-.02-.14.19-.4zm-21.2.3c.24-.18.12-.18.36 0-.3.27-.16.19-.36 0m5.42-.58.51.02v.46l-.52-.04Zm15.78.28.02-.51.68.03v.48zm1.43-.3c.08-.26.11-.33.38-.38.03.47.08.39-.38.37m-18.78-.4c.33.17.47.23.45.67-.56.13-.43-.05-.73-.37Zm-1.68 0 .7.04c.03.47-.23.75-.72.63zm-3.62.7a.8.8 0 0 1-.35-.5l.42.05zm-5.04-.6c.37-.27.21-.11.45 0-.25.14-.08.33-.45 0m32.98-.07c-.19-.3-.14-.33-.08-.73.34-.02.63-.08.9.08-.07.6.01.17-.36.36-.3.15-.1.2-.46.29m-29.72-.35-.52-.02v-.27c.25-.17.2-.13.53-.06zm26.56-.9h.33c.4.46.42-.07.37.7h-.7zm-28.19.87c-.4.1-.59.04-.7-.36l.7.04zm29.84-1.08.9.03-.02.69-.91-.01ZM44.5 41.6l-.68-.01c-.06.69.03.98-.48 1.32-.5.33-.27-.23-.5.34 0 .23.02.7 0 .9-.06.44-.15.1-.24.77-.13.04-.58.28-.7.34.01.19.27 1.55.47 1.7.23.2-.07-.01.27.13 1.08.45.88-.4.82-.5-.33-.5-.45.16-.82-.7.52-.44.32-.3.73-.13l1.53.29c.28.52.46.52.8.85-.05 1.18-.22 0-.35 1.07-.62.09-.22 0-.39.23l-.28.44c.58.25.3.46.92.45l.14-.43c.58.05.31.04.65.18.39.16.18-.12.47.25.31.3 0 .1.24.46l.26.46c.26.54.37.08.85.58.4.43 1.23 1.2.85 1.88-.57-.04-.05.19-.55-.57l-.36-.84-.6-.01-.08-.5-.4.05c-.53.19-.44.25-.55.44h-.72c-.62-.61-.28-.35-.57-.73-.31-.41-.37-.3-.63-.8-.43-.78-1.4-1.05-1.66-1.27-.18-.15-.32-.62-1.21-.77-.49.5-.58.82-1.91.7l-.42-.68c-.42-.56-.13-.63.18-.86-.16-.34-.77-1.05-.73-2 .24.1.26.23.46.4.42.38.14-.11.33.6h.61c.02-2.46-.14-1.43.58-2.4.17-.22.32-.3.55-.5.03-.63-.24-.51-.94-1.01-.08-.06-.06-.06-.21-.13-.12-.05-.05.04-.25-.07l.33-.4c.52-.2.19-.18.75-.15.21-.3-.07-.42 1.23-.3v.3h2.17c.35.07.1.15.66.2.4-.15.4-.26.7-.52h.68c.88 1.08 1.01 1 2.47.9l.35.36c1.46-.13 1.4-.02 2.18.15.34.08.74-.06 1.07.05.6.19.29.2 1.07.15.33.23.02.14.47.34.2.09.45.18.66.26.72.29.44.04 1.07.6.22.2.61.63.86.87.42.42.61.52 1.1.83.76-.32.43-.24 1.3-.23l.21-.33c.6.04.98-.33 1.56-.58.9-.4 1.49-1.03 1.87-1.3.42-.31.17.06.66-.46.22-.24.43-.2.69-.43.2-.17.29-.4.53-.58l.52-.5c.3-.25.3.05.7-.42s.76-.66 1.04-1.2c.28-.52.17-.2.48-.53.22-.24.23-.46.43-.7.5-.56.44-.97.88-1.35V35.2c-.44-.4-.3-.5-.6-1.03-.23-.42-.15-.2-.47-.35-.36-.17-.11-.17-.48-.34-.43-.2-.14.12-.48-.32-.14-.2-.22-.3-.43-.4l-.6-.21c-.44-.18-.12-.04-.48-.35-.29 0-1.18.06-1.42 0l-1.06-.35c-.43-.14-2.22-.04-2.8-.03l-.29-.34-2.18.02-.36.35c-1-.12-1.27-.07-1.91.13l-.79.23c-.18.04-.8 0-1-.01-1.2.9-.67.26-1.8.58-.09 2.15.04.76-.46 1.9q-.16.35-.58.39c-.85.1-1.08-.46-1.75-.11-.37.19-.38.38-.53.5l-1.4.62c-1.22.49.25.44-2.08.4-.58-1.1-.12-1.2-.06-2.08.48-.25.24-.3.87-.26.27-.35.01-.27.38-.32.15-.02.63 0 .8 0 .27.44.42.43.53.57.22.3-.09.44.5.66.63-.14.3-.38.7-.64.2-.13.63-.18.9-.41l-.03-.56c.46-.23.2.08.3-.38-.3-.13-.3-.08-.67-.1l-.9.15-.04-.37c1.04-.18 1.08-.15 1.46-.55.55.02 1.3.1 1.76-.08.63-.25.37-.04.77-.14.46-.1-.14-.15.84-.2l.15-.31c1.24.07.04-.12 1.78-.17.73-.02.24-.13.71-.21.85-.15.62.24 1.23-.2l.12-.08c.4-.21.54-.24.98-.23.84 0 1.02-.18 1.32-.52.95.02 1.13-.6 2.15-.6.31-.61.01-.1.53-.38l.27-.24c.27-.18.13-.02.36-.14l.12-.1c.93-.7.58-.05 1.08-.65.34-.4 0-.08.58-.33.64-.3.63-.53 1.55-1 .88-.43.17-.15.85-.56.34-.2.86-.67 1.01-1.03l.93-1.3c.5-.6.21-.9.39-1.35l.17-.33c.16-.22 0-.02.28-.24-.03-.55 0-.43-.33-.7.02-.5-.16-1.7-.76-1.96-.15-.06-.15-.05-.34-.07l-.03-.48c-.8-.04-.21-.24-.94-.2-.1.5-.17.35.6.74.35.18.58.4.57.84-1.1.07-.8 0-1 .35-.46-.01-.5.05-.83.17-.44.17-.35.12-.59.54-1.36-.01-.9-.05-1.26.24-.42.32-.18.04-.5.2-.57.3.1.57-1 .45-.06-.97.68-.37.94-1.2 1.57-.1.11-.43 1.82-.43.37-.68.53-.08 1.2-.83l-.36-.4c-.47.18-.46.38-.75.55-.17-.1-.11-.08-.25-.2l-.05-.05-.05-.05-.6-.55.04-.6c.26 0 .13-.04.34.05l.24.16c.33.36-.26.5.74.5.2-.37.22-.33.5-.62-.93-.73.02-.88-2.8-.78.12.54.3-.26.25.67-.82.13-.48-.1-1.2-.2-.05-.55 0-.32-.32-.68-.62 0-.39-.1-.92.37-.37.3-.07.06-.28.55-.84-.01-.44-.2-1.12-.22-.36 0-.36 0-.61.1l-.53.2c.33.23.32.1.3.62-.2.02-.13.03-.21.06l-.3.13c-.22-.42-.42-.56-.9-.5-.1.03-.58.49-1.13.7-.42.16-.1-.2-.38.34-.94-.02-1.21.39-2.21.4-.15.45-.3.4-.67.56l-.76.15c-.18.58-.9.84-1.33 1.22-.56.5-.55.2-.98.74l-.7.63c-.22.15-.7.28-.8.6-.18.64.44.4.03 1.47-.23.59-.57.55-.82 1.03-1.19.02-1.26.6-1.43.89 0 .02-.23.27-.23.27l-.2.43c-.3.36-.38.24-.41.82.15.16.19.18.34.3.14.1.05.02.16.14.42.45.33 1.6-.13 2.05l-.52.2c-.35.1-.03-.01-.25.15l-.5.2c.45.57.68.39 1.27.16.5-.2.2-.04.53-.38.38-.4.22.1.58-.35.34-.33-.04-.11.23-.47l.72-.71c.02-.03.36-.27.42-.31-.15-.2-.25-.26-.17-.54s.04.05.13-.28c.05-.17 0-.2.05-.36.1-.36.6-.66.83-.9.62 0 .32-.03.67-.15.23-.08.48-.05.75-.05.48.83.24 1.28-.32 2-.2.26.02.13-.22.4-.44.47-.2-.21-.68.46h-.72c-.34.35-.56.66-.94.95-.48.37-.27-.02-.6.32-1.18 1.27-1.06.74-1.7 1.24l-.92.95h-.72c-.23.34-.22.36-.6.3a3 3 0 0 1-1.08-.77c-.3-.5.23-.2-.34-.44-.3.14-.2.17-.35.54-.02.06-.04.06-.1.23.21.22.16.1.25.4l.6.03c.25.3.25.3.58.48v.9c-.3.16-.27.1-.49.4.06.23.1.3.27.48.34.35.06 0 .34.5.68-.04.3-.1.72-.21.77.89.4.68.52 1.9.89.03.67.14 1.28-.46.23-.22.42-.2.62-.4.07-.07.3-.38.43-.46.33-.2.33-.1.62-.4l1.26.02.04 1.17-.33.26-.05.04-.82.5c-.43.16-.1.14-.51.19-.6.07-1.45-.15-2 .16-.36.2-.1-.06-.34.34-.83 0-1.06.43-2.01.4l-.56-.9c-.18-.5.29-.17-.3-.43-.22.44-.07.32-.32.72-.62.96.09.26-.64.66l-.07.05q-.03 0-.06.05c-.21.16.19.06-.23.17-.53.13-.37-.16-.67-.3a3 3 0 0 1-1.05-.93c-.24.22-.08.14-.4.23-.1 1.1-.42.92-1.22 1.9h-1.34c-.14-1.54.34-1.5.15-3.22-.82 0-.66.53-.66 1.23-.55.1-.1.35-.77.38-.4.02-1.28-.16-1.15.36.22.89-.17.79-.7 1.46h-1.5c-.29-.31-.25-.47-.29-.9-.3-.07-.2-.04-.4-.23-.36.12-.19.1-.4.18-.3.12-.07-.04-.4.16.1.64.21.13.22 1.03.04.23.26.4.42.67h.57l.03.65c-.54.3-.1.16-.57.4-.73.38-.26.15-.52.63-.12.22-.47.42-.57.55l-.04.07c-.54.94-.01 1.1.27 1.6-.13.29.07.03-.32.3v.56c-.87.59-1.1.57-1.83-.05v-1.8c.61-.55.5-.58 1.34-.58.3-.34.14-.1.32-.5.15-.3.19-.31.14-.8l-.82-.01c-.2-.4-.57-1.3-.47-1.76.2-.87.95-1.1 1.08-1.34.1-.87-.3-.56-.14-1.06.08-.25.01.06.1-.2.1-.27.03-.12.08-.36.08-.46.02-.04.2-.55-.32-.33-.3-.68-.71-.9v-.52c-.11-.07-.22-.11-.23-.12l-.64-.37c-.27-.15-.32-.38-.76-.61-.02-.57.14-.63.34-1.06s.38-.28.58-.4c.47-.3-.04-.22 1.18-.23.53 0 .43-.03.68.32h.52c.25.5.24.84.92.7.23-.04.28-.23.46-.41l-.85-.1-.5-.63c.02-.5-.04-.8.12-1.2.04-.1.02.07.09-.24l.29-.77h1.8c.11.2.04.1.09.27l.4.9c.02.12-.52.89.04 1.12l.64.04c.04-.62-.17-1.07.34-1.46-.5-.42-.23-.46-.55-.74-.34-.28-.25.08-.7-.47.01-.5-.06-.9.1-1.3.16-.37.13-.93.08-1.37-.88 0 .23.25-.93.29l-.66-.6V27.1c.48-.47.66-.24.72-.97.54-.08.4-.18.75-.23.22-.03.87 0 1.12 0 .74 1 .32.44.25 1.58-.48.36-.66.6-.7 1.23q-.02.37.03.73c.14 0 .4 0 .5.03.4.1-.05.04.35.16l.91.2c.03-.27 0-.6.02-.81.05-.36.46-.4.31-1.22-.16-.42.07-.04-.29-.38a1.3 1.3 0 0 1-.42-1.35l.26-.57c.07-.16.08-.15.16-.37-.36-.46-.19-.41-.23-1.02-.4 0-1.07.12-1.37-.14-.22-.2-.23-.1-.46-.33.06-.32.17-.32.3-.57.33-.57 0-.13.38-.53l.43-.5c.34-.34.12-.25.55-.52-.02-.9.1-.7-.34-1.14.06-1.42-.74-1.05-1.06-1.9-.07-.2-.02-.2-.1-.41-.08-.25-.04 0-.14-.32.45-.47.55-.18 1.14-.42.78-.31 1.74.08 1.86.1.58.14.27-.01.77.3v.6c-.4.18-.5.43-.77.76h-.9l-.24.28c-.03.47-.14 1.14.19 1.42l-.2.39c.28.2.16-.03.22.43 1.16.1.49 1.24.49 1.93 0 .73-.05.28-.22.82.25.25.35.25.45.6 1.7.15 1.04 1.03 1.6 1.53-.16.23-.59.95-.65 1.24-1.01.08.07.23-.96.35-.09 1-.22.54-.22 2.06L36 31.78c.04.6-.06.28.25.43.3-.13.18.2.27-.33.02-.12-.04-.44 0-.6.05-.34.02-.04.14-.3l.48-.68c.63-.6-.01-.72.08-1.18.1-.22.3-.35.46-.61l.16-.3c.2-.31.04-.06.3-.3-.02-.81.15-.36.2-.92.04-.4-.08-.83.05-1.2.14-.4.15-.3.15-.94v-1.2c-.53-.4-.03-.11-.7-.35-.02-.77.06-.55-.23-1.2.3-.48.36-.42.75-.81.37-.38.2-.15.51-.3.38-.2.11-.57.8-.06l.2.12c.27.16.53.27.34.54l-.1.1-.59 1.07c-.52.83-.42-.54-.45 2.6 0 .77-.33.62-.18 2.14.69.02.76.06 1.37-.25v-.56c-.59-.34-.72-.92-.7-1.64.38-.15.42-.23.73-.51.85-.76.87.3 1.28-1.35.05-.2-.02-.48.04-.67.1-.3.5-.24.07-.65-.28-.3.04-.06-.34-.26-.32-.17-.4-.17-.68-.5.07-.6.16-.21.25-.81h1.13c.61-.1-.38-.34 1.83-.3.18.3.31.36.59.59v.8l-.4.3c-.52.46-.9.45-1.68.47-.34.49-.26.18-.26.9.16 0 .5 0 .64-.02.54-.08.57-.4 1.17.13.6.52.62.97.77 1.06.32.05.6.05.82-.15.32-.3-.04-.2.35-.64-.63-.53.05-.1-.94-.7.1-1.52.39-1 1.07-1.53.9 1.04 1.55 1.04 1.5 2.1l-1.15.07c-.1.4.04.44-.18.74l-.51.7-.04.08-.3.4-.37.65-.85 1.08c-.32.32-.14.8-.73 1.29-.06 1.47-.3.27-.34 1.5-.48.14-.53.19-.79.57-.36 0-.47 0-.68-.17-.66-.51-.26-.4-.37-1.2-.1-.7-.2.25-.31-.61.16-.23.8-.8 1.02-1.02l-.01-.74c-.83-.07-.44.12-1.17.2-.04.43.05 1.04-.04 1.44-.08.37-.48.53-.64.78-.16.27-.14.64-.49.94-.99.83-.68 1.1-.68 2.48.16 0 .04.14.62-.33.5-.4.14-.2.33-.65l1.5-.02c.24.39.42.42.73.77.24.27-.07.09.3.25.27-.1.23-.07.37-.3.15-.26.06-.16.15-.4l1.55-.02c-.06-.48-.45-.61-.88-.74-.12-1.54 0-.95.7-1.74a5 5 0 0 1 .6-.61c.48-.42.91-.52 1.25-1.2l.51-.7c.33-.56.14-1.5.2-2.21.27-.32.2-.2.46-.4.31-.26.13-.26.4-.4l.3-.11c.85-.37.64-.23 1.23-.81.37-.37.28-.13.53-.28.39-.23.86-1.01 1.27-1.17l1.03-.6c.13-.16.19-.27.39-.43.44-.36.78-.87 1.28-1.15.17-.1.39-.2.54-.38.38-.47.48-.44.82-.81.2-.23.15-.27.35-.46l.23-.17c.23-.27.02-.2.2-.4l.56-.57c.34-.38.45-.76.6-.92.22-.22.38-.36.52-.7.07-.17.04-.18.1-.3.28-.46.42-.62.7-1.35.23-.62.34-.56.5-1.11.18-.58.39-.7.38-1.35l.34-.17c-.08-.76.09-.61.17-1.06.1-.5-.12-.65.12-1.2.34-.8-.31-1.75.4-2.24-.03-.75.18-.57-.32-.9.04-1.02-.41-1.23-.39-2.15-.58-.31-.18-.84-1.22-1.6-.28-.2.1.09-.2-.1-.52-.35 0-.38-1.18-.3-.08.53-.18.92-.62 1.2-.36.26-.35.48-.49.84-.08.22-.02.15-.13.39-.4 0-.34.06-.66-.11.06-.72-.01-.22.43-.52l-.01-.52c.22-.13.29-.2.5-.34.05-.98.34-.67.5-1.14-.6-.08-1.83-.04-2.5-.03-.6 0-.34.28-2.34.2-.28.38-.35.2-.52.52l-.76.13c-.58.23-.24-.16-.53.38a3 3 0 0 0-1.57.57l-.05.05-.36.15c-.46.2-1.59 1-2.03 1.33l-.39.42c.16.38.43.2.3 1.02-.05.33-.36.42-.71.42l-.03-.87c-.44-.04-.03-.06-.46.15-.17.09-.31.14-.44.27-.32.3-.35.49-.77.67-.3.12-.41.44-.74.67-.6.43-.2.53-.88.55a1.2 1.2 0 0 1-.28.63c-.27.35-.25.17-.5.4-.24.24-.4.63-.77.78-.28.12-.54.4-.75.56-.51.38-.12.29-.36.66-.32.48-.18-.1-.43.49l-.51.9c-.8 1.15-.35.6-.84 1.52-.1.22-.37.33-.46.55-.2.5-.38.4-.56.87l-.15.34c-.51 1-.15.33-.8 1.14l-.66-.02c.1-.32.25-.31.5-.5.03-.68.45-1.04.4-1.73l.32-.2c0-.2-.03-.47 0-.6.1-.52.44-.94.38-1.54l.37-.26c-.09-1.02.09-.7.16-1.27.03-.18-.03-.52 0-.7.05-.23.13-.17.23-.52-.09-.5-.2-.3-.24-.72-.02-.24.01-.74.01-1.01 0-.71-.05-.4-.17-.86-.15-.54.16-.27-.36-.67.05-.6-.3-.98-.44-1.58l-1.15-.04c-.06-.55.01-.4.17-.8-.18-.22-.3-.38-.56-.48-.57-.23-.13 0-.56-.47-.37-.13-.32-.02-.73-.18-.59-.23-.22.05-.6-.4-.8.02-.36-.15-.93-.2-1.03-.08-.35-.02-.94-.18-.69-.2-1.03.4-1.82.38-.33.4-.63.54-1.2.5l-.1-.68c-.59-.06-.85-.22-1.44-.21l-.27-.33c-.95 0-.6-.1-1.25-.21-.52.1-.22.2-.8.23L22.52.98c-.28.3-.3.33-.73.49-.74.26-.22.3-.78.53-.7.29-.93.6-1.53 1.12-.37.33-.29.54-.53.78-.21.22-.17 0-.3.27l-.46.92c-.26.53-.65.19-.7 1.28-.34.24-.34.42-.47.85-.11.38.03.87-.02 1.28-.07.54-.22.22-.21 1.1v3.99c-.01.97.44 1.27.4 2.32l.3.2q.08 1.2 1 2.04c.58.07.35.02.82.2.65.25.21.1.58.44.16.15.45.2.64.38.23.2.2.35.46.55a5 5 0 0 1 1.31 1.75c.24.58-.11.23.4.56l-.04.62c-.54-.1-.57-.86-.8-1.15-.17-.22-.83-.78-1.06-1-.9-.85-1-1.52-2.33-1.61-.27-.46-.36-.42-.81-.61-.49-.2-.63-.3-1.24-.28-.17-.05-.3-.4-.9-.52-.66-.12-.36-.22-1.23-.2-.46-.36.08-.14-.5-.32-.42-.13-.23-.18-.7-.2-1.32-.04-.8-.17-1.64-.2-.35-.64-.44-.18-.8.04l-.3-.36c-.9.06-1.02-.22-1.41.33-.78 0-.32.14-1.46.2-.55.02-.63.35-1.08.6-.61.38-.84.59-1.2 1.22-.23.39-.24.2-.43.5a1 1 0 0 0-.2.59c-.03.57.07.2-.13.7a7 7 0 0 0-.02 2.39c.3.82 0 .56.3 1.43.18.5-.2.26.35.56.04.85.4 1.83.97 2.49.22.24.22.2.34.48.22.5-.05.08.41.5.56.49.26.4 1.02.8.5.28.22.15.35.48.12.28.2.26.4.5.38.4 1.3 1.48 1.72 1.75.34.2.94.47 1.39.44.33.4.71.47 1.2.52.5.06.16.06.46.16.36.12.67-.02 1.02.1.58.2.4.15 1.07.15l.26.32c.62 0 .89-.1 1.4.12.57.25.67.27 1.4.27l.25.32c.61 0 1.41.27 2.01.46v.96c-.69.06-.34-.04-.76-.45-.34-.07-.34 0-.61-.1-.42-.17-.07-.18-.68-.14l-.19-.32c-.87 0-.66-.04-1.44-.2-.8-.17-.41-.26-1.55-.2l-.28-.31c-.25 0-.47.04-.68-.03-.18-.05-.04-.06-.27-.13l-.99-.25c-.21-.02-.6 0-.83.02l-.35-.37c-.56.09-.35.06-.66.36-.74 0-.88-.11-1.53.22-.53.27-.57.15-.92.38-.43.29-1.25.44-1.58.67l-1.7.95c-.23.14-.14.2-.53.37-.29.14-.44.13-.62.3-.24.24-.16.2-.48.44-.24.2-.17.25-.36.46-.17.2-.32.19-.5.4-.72.87-1.45 1.52-1.9 2.57-.47 1.08-.51.2-.52 2.13-.01 1.28.77 1.25 1.3 2.25.42.79.67.56 1 .84.15.14.05.26.36.38.52.2.2-.12.58.38.3.37.86.58 1.3.55l.22.33c.72-.02.76.06 1.33.3.55.24 1.05-.03 1.57.16 1.28.5 1.95-.34 2.97-.03.4.12-.01.17.62.18.73 0 1.85.1 2.53-.01.4-.07.1-.16.62-.2.87-.08 1.7-.43 2.14-.4l.2-.3c1.2-.11.6-.42 1.3-.73.92-.4.63-.08 1.3-.73.14-.15.43-.23.65-.32.23-.1.12 0 .36-.15.22-.15-.04-.05.27-.23a7 7 0 0 1 1.6-.58c.37.99-1.86 1.26-2.02 1.38-.38.64-.28.3-.88.6-.54.28-.45.46-.52 1-.92.6-1.36.2-2.38 1.08-.4.34-.43.56-.86.87-.6.42.06.44-.78.94-.1.8-.02.4-.67 1.46a2 2 0 0 0-.28.83c-.11.5-.15.22-.2.92l-.32.19c.09 1.24-.44 1-.02 2.07.2.48-.15.1.34.46.03.77.2.83.63 1.4.14.17.22.43.4.62.24.28.32.15.59.53l1.05 1.06c.03.02.56.2.72.3.4.2.27.3.63.48 1.1.59 2.61.37 3.87.37 1.76 0 1.36-.2 1.92-.2 1.5-.06.7-.22 1.95-.2.43-.5 1.1-.34 1.4-.97.72-.16.89-.25 1.55-.64.7-.4.42-.72 1.39-.74.13-.21.23-.48.37-.65.25-.32.2-.2.42-.6.33-.61 1.13-1.1 1.5-1.54.27-.34-.07-.36.33-.67.43-.34.28.04.5-.54.13-.35.12-.3.46-.52.17-.87-.1-.28.42-.92.08-.6.25-.9.23-1.54 0 0 .3-.3.46-.82.16-.47.09-.7-.14-1.04l.69-.76c.03-.64-.13-.81.22-1.33-.86-.74-.5-.3-.75-1.1-.12-.36-.15-.02-.18-.52-.02-.48.03-.98 0-1.45l-.24-.2c-.26-.15-.6-.12-.92-.11-.2.32-.1.09-.22.43-.2.53-.31.25-.53.79-.13.3-.46.43-.75.54-.33.12-.84.08-1.11-.04-.23-.1-.3-.08-.48-.17-.05-1.32 0-.94.2-1.16l.84-.9c.55-.5.78-.43 1.47-.43.54-.7.26-1.66 1.39-1.63.1.2.04.15.16.3l.53 1 .14.37.04.06.05.06c.34.45.07-.06.2 1.23.71 0-.02.09.43-.2s1-.13.46-1.13c.69-.65 1.08-1.32 2.07-1.3.73.02.2.17.95.24.13.38.2.38.53.56.03.69-.04.38-.28.89-.36.77-.51.52-1.1 1a2.3 2.3 0 0 0-1.26.3c-.02.64.04.3.17.7.09.26.03.59.05.87l.32.26c-.02 1 .2 1.39-.68 2.09-.27.2-.2.05-.47.23-.21.13-.12.14-.47.3l.7.77c-.12.4-.1.12-.34.48l.01 2.48c.58.5.13.1.4.8.22.64.16 1.27.62 1.83.18.22.45.42.56.66.33.68.29.53 1.45.99.85.33.3.73 1.8.73l.28.33 1.74-.01.27-.3c.41-.2 1.8.29 2.91-.54.35-.26.11-.07.41-.22.32-.16.08-.1.34-.26.09-.06.94-.33 1.22-1.1.11-.3.86-1 1.16-1.3l.76-.36c.49 0 .27.05.62-.1.52-.2.32-.03.72-.11.25-.05.13-.1.53-.2.99-.2.68-.45 1.53-.77 1.06-.4 1.66-1.33 2.5-2.06 1.1-.94.68-1.9.82-2.2.55-.56.45-.5-.01-1 .02-.77-.14-.68-.21-1.41-.46-.12-.4.02-.66-.36-.31-.46-.25-.24-.57-.54-.23-.21-.3-.5-.44-.7-.14-.18-.3-.26-.54-.58-.66-.06-.35 0-.93-.28-.56-.27-.3-.04-.77-.46-.42 0-.65.08-1.03-.07-.57-.23-.48-.07-1.01-.11-.62-.06.1-.2-2.14-.21l-.27-.33c-.73.02-1.5.12-2.14-.14-.4.43-1.2 1.66-1.9 1.06l-.04-.05-.45-.41z"/><path fill="#353534" fill-rule="evenodd" d="m24.75 41.92.65-.02c0 .33-.12.4-.23.7-.3-.3-.42-.3-.42-.68m-3.62-2.36-.85-.02c-.1-.92.1-.6.57-.95.16-.11.05-.07.28-.27.23.33.58.66 0 1.24m5.35-1.23c.62 0 .35.02.86.43a1 1 0 0 0-.58.46l-.61-.45zm-1.2-1.57.63.29c.3.25.43.47.4.84l-1.25.02c-.06-.55.1-.7.22-1.15M23.9 38.1l-.28-.28c-.02-.91.68-1.61 1.1-.67-.2.46-.55.7-.82.95m-.35-3.55-.46-.27c.32-.42.12-.92 1.19-.81-.02.78-.05.04-.28.56-.16.37 0 .36-.45.52m-6.37-2.87c.12-.67.01-.1.35-.58l.87.03-.04.63-.28.26c-.2-.03-.76-.26-.9-.34m4.88-.81.07-.04c.24-.1.39-.02.54 0l-.02.66-.95-.02c0-.4-.07-.08.09-.35zm-1.34-1.03a1 1 0 0 1-.74-.02l.05-.4.73.06zm1.82.23c-.22.1-.08.16-.52.38l-.54.15-.15.5-.55-.02c.05-.34-.23.09.12-.35.15-.2.62-.1.56-1.5-.51-.41-.86-.5-1.56-.47-.3.36-.7.45-.8.94.36.44.68-.07.73.86l.38.06c.08.78 0 .2.55.8l.68.68c-.17.19-.18.23-.33.44-.3-.38-.26-.33-.74-.51-.6-.23-.3-.15-.6-.53-.21-.26-.36-.18-.61-.5-.26-.33-.21-.46-.25-.9-1.24-.2-.2.25-1.15.28-.54-.22-.1.04-.32-.51l-.44.02c-.07.55.07.4.09.57.01.2.01.02-.07.24-.14.42-.42 1.33-.23 1.76.21.49 1.21.28 1.5.13.36-.18.37-.3.79-.57.3.08.1.05.42.18.47.18.16.03.8.73.45 0 .39-.08.7.14l.83.6c.2.14.2.17.52.2.03.45.05.4.34.62-.04.62-.1.38.26.79l.92-.02c.24.35.32.3.44.6l-1 .34c-.06.42.02.3-.13.68-.35.84.22.9-.32 1.94l-.66-.03c-.18-.31-.2-.16-.24-.65-.56-.14-.11-.26-.95-.24-.63 0-.93.38-1.35 1.03-.4.6-.35.24-.34.76.04.02.17.1.23.12.87.5.32.5 1.65.44a2 2 0 0 1 .45-.54l.26-.23c.6-.56-.11.05 1.07-.37l1.18-.27c.23-.04.1.02.31-.07.3-.11-.16-.02.3-.12.06-.02.31-.02.4-.03.19-.35-.01-.23.43-.3.2.34.12.7.14 1.16.19.44.9.29 1.28.3l-.04.07-.16.57c-.8.1-.46.24-1.02.76-.66-.1-.14-.24-1.02-.22-.28.29-.44.5-.78.67-.03.64-.11.5.3.79v.52c.47.24.18-.2.48.37 1.28.05.05-.18 1.15-.33.09-.72.15-.1.22-.65.03-.2 0-.61-.02-.83l1.02-.75c.25-.17.2.03.62-.35.04-.93-.14-.38-.19-1.01.38-.43 1.2-.74.33-1.3l-.5-.32c-.43-.36-.4-.55-1.04-.6-.04-.6 0-.44-.46-.72l-1.2-1.06c-.14-.2-.23-.46-.4-.68 1.06-1.64-.12-2.4-.92-1.78-.35.27-.2.36-.56.5-.24-.22-.1-.2-.65-.58.02-1.11.24-.58.72-.94.3-.22.4-.88.4-1.26l-.63-.46c-.13-.11.06-.01-.13-.12m4.06 3.58c-.55-.24-.8-.84-.57-1.45a7 7 0 0 1 .87-.38c.19.14.3.2.47.34v.65c-.5.35-.16-.03-.33.38-.13.3-.11.3-.44.46m2.66-2.33-.74-.02c-.1-1 .14-.57.6-1.22l.96.02c.03.6-.43.85-.82 1.22m-3.65-2.16c.19.34.13.47.1.9l-.65.02c-.06-.55.03-.82.55-.92m3.14.52-.39.43-.45-.02c-.66-.28-.53-1.14-.53-1.58.48-.38.34-.12.68-.33.2-.12.26-.37.49-.6.25.34.01.16.25.47l.05.05.05.06.08.13c.65 1 .44.47.92 1.05-.34.23-.67.32-1.15.34m1.49-2.12c.58.12.4.53.11.86-.47.05-.15.04-.47-.1-.26-.1-.23-.04-.49-.2.07-.41.39-.65.85-.56m-3.3-.55c.44-.21.15-.16.76-.17-.04.44-.03.03-.1.3-.17.68-.07.93-.71.89-.04-.4-.07-.65.05-1.02m.17-3.22c.34.16.25-.07.26.56 0 .42.04.4-.16.68l-.36-.46c.06-1.01 0-.65.26-.78m3.2 3.06a1 1 0 0 0-.5 0l-.36.16c-.46.19-.13.18-.62.53-.34-.28-.3-.2-.52-1.16-.12-.5-.22-.7-.23-1.3-.35-.22-.14.03-.3-.32v-1.62c-.23-.58-1.11-.1-1.42-.05-.13.48-.43.3-.12 1.02.17.4.08.75.11 1.25l.92.45c.01-.02.05.03.07.05-.73.14-.37 0-.97.9-.3.42-.24.96-.24 1.57.18.32.35.48.68.68.17 1.45.8 1.14.72 2.06-1.18.12-.27-.2-.93-.3-.87-.11-.01.29-.82.3-.1-.87.77-.94.17-2.12a2 2 0 0 0-.35-.5c-.47 0-.41-.06-.68.22l-.1.1c-.52.64-.38 1.72-.04 2.34l.92.04c.18 1.6-.42-.71-.27 2.44.45.27.43.37.77.78l.58-.01c.44-.52.68-.62.79-.9l.11-.3c.21-.5.07-.47.13-1.13.92 0 .95.1 1.5-.15.2-.08.12 0 .3-.11l1.21-1.23c.21-.46-.3-1.1-.19-1.41.1-.25.23.08.6-.84.26-.62-.37-1.26-.92-1.44"/><path fill="#333432" fill-rule="evenodd" d="M45.91 50.27c-.02-.3.04-.4.14-.57.2-.36-.11-.28.52-.26v.89zm-1.15-3.22.1.1c.18.2.12.25-.39.57l-.52-.4.03-.52q.2-.03.42-.01c.22.04.14.04.32.22zm-4.45.4c-.04-.53-.07-.48.11-.93.22-.53-.02-.22.4-.67.44.07.32.15.78.28 0 .82-.44 1.42-1.28 1.33m.17-2.65c.04-1 .53-1.57 1.59-1.46.34.45.25.36.22 1.02-.61.4.03.26-.77.62-.18.09-.2.39-1.04-.18m1.16-3.83c.27-.01 2.23 1.1.91 1.62-.65-.3.16-.23-.63-.33l-.04-.67-.98-.3c.1-.07.59-.26.74-.32m2.85.63c-.23-.42.06.02-.61-.26q-.05 0-.1-.06c-.02-.06-.05-.06-.08-.1l.78-.01c-.4-.32-1.88.26-2.2-.2v-.3c-1.3-.12-1.01 0-1.23.3-.55-.03-.22-.04-.74.16l-.34.39c.2.1.13.02.26.07.14.07.13.07.2.13.7.5.97.38.94 1.02-.22.18-.38.27-.55.5-.71.96-.55-.07-.57 2.39h-.61c-.2-.71.08-.22-.33-.6-.2-.17-.22-.3-.46-.4-.05.95.57 1.66.72 2-.3.23-.59.3-.17.86l.42.69c1.33.1 1.42-.2 1.9-.71.9.15 1.04.62 1.21.77.26.22 1.24.49 1.66 1.27.27.5.32.39.64.8.28.38-.05.12.57.74h.71c.11-.2.03-.26.56-.45l.4-.05.07.5h.6l.36.85c.5.76-.02.53.56.57.37-.68-.45-1.45-.86-1.88-.47-.5-.59-.04-.84-.58l-.26-.46c-.24-.36.07-.16-.24-.46-.3-.37-.08-.1-.47-.25-.34-.14-.08-.13-.65-.18l-.15.43c-.61 0-.33-.2-.91-.45l.28-.44c.17-.22-.23-.14.39-.23.13-1.06.3.1.34-1.07-.33-.33-.52-.33-.8-.85l-1.52-.3c-.42-.15-.21-.3-.74.15.37.85.5.2.83.7.06.09.26.94-.82.5-.35-.15-.04.06-.28-.13a6 6 0 0 1-.46-1.7c.11-.07.56-.31.7-.35.09-.66.17-.33.23-.76.03-.2 0-.68 0-.9.24-.58.01-.02.51-.35.5-.34.41-.63.48-1.32z"/><path fill="#353534" fill-rule="evenodd" d="M30.13 24.65c.27-.34.49-.38.97-.32.03.48.02.15-.32.57-.3.35-.18.3-.66.28zm-2.54-4.05c.82-.71.24-.64 2.05-.56.16.38-.03.1.27.37-.54.53.2.36-.82.87-.47.23-.91.18-1.51.13zm2.82.39c.05-.8.27-.6.2-1.38-1.61-.01-.91-.02-1.39-.31-.8-.5-.39-.03-1.39 0-.56 1.08-.59.85-.82 1.28-.1.18-.16.24-.18.52-.01.3-.02.38.12.6.33.54 1.59.46 1.59.46.2.16.14.16.42.23.05.6.04.37.18.77.1.3.02.47.04.8.05.6.15.03.21.6.04.33-.1.38-.2.6.08.37.33.65.68.75.62.16.64-.15 1.24-.2.09-.58.43-.97.43-1.46l-.47-.88c-.54-.02-.82.4-1.1.7-.2-.55-.25-.12-.26-.93-.35-.21-.15.04-.3-.31v-.91c.04-.21.27-.33.48-.55.3-.3.17-.22.52-.38m-6.58 6.31-.02-.63c.41-.34.72-.36.92.24-.92.53-.14.46-.9.4m-.07-2.64-.7.03.03-.97.71.06c.04.33.07.62-.04.88m-.65 3.37c.8.49 1.02.15 1.6-.38.3-.26.14.05.3-.3.22-.42.36-.78-.02-1.15-.52-.5-.23-.01-.53-.74-.46-1.1.38-.95-.1-1.84-.38-.73-.72-.57-1.4-.56-.5 1-.28 1.59-.02 2.35h.57l.28.45c-.28.88-.93.47-.68 2.17"/><path fill="#333432" fill-rule="evenodd" d="m32.05 48.37-.34.1-.13.1c-.2.15.06.26-.45.13-.05-.35-.07-.71.05-1l.5-.4c.49-.01.38-.04.73.23-.1.25-.22.57-.36.84m.4.52c.05-.6.03-.36.52-.76l-.01-.8c-.7-.5-1-1.15-1.8-.43-.58.5-1.18 1.19-.48 2.52 1.45.06.54-.33 1.76-.53"/><path fill="#fefefe" fill-rule="evenodd" d="M38.86 35.2c.06.43-.01.12.14.43l.21.4c.13.3.07.77.07 1.13.18.45.04.07.42.46.33-.11.47-.25.77-.5.01-.85.62-1.13-.19-1.93.22-.32.29-.27.15-.78-.23.02.04 0-.26.13l-.35.17c-.49.35-.38.12-.96.5m-10.11-5.52c.48-.03.81-.12 1.14-.35-.47-.58-.26-.04-.9-1.05l-.1-.13-.04-.06-.05-.05c-.24-.3 0-.13-.26-.48-.22.24-.28.49-.48.6-.34.22-.2-.04-.68.34 0 .44-.13 1.3.53 1.58l.45.02z"/><path fill="#333432" fill-rule="evenodd" d="M38.36 19.07c.1-.06-.19-.28.88-.14a.6.6 0 0 1-.36.36c-.54.14-.44-.05-.52-.22m-.93-.4c0 .7.1.6.46 1.13l1.62.02c.9-1.03.48-1.35 0-1.83-.47.09-.04.1-.51.18-.58.09-1.14.08-1.57.5"/><path fill="#fdc610" fill-rule="evenodd" d="M36.93 31.37c0 1.46-.12.8.63 1.58.18-.06.56-.27.67-.4.38-.47.34-1 .1-1.6-.19-.44-.29-.33-.77-.36l-.31.36c-.3.36-.13-.06-.31.42m-9.35-10.78-.01.82c.6.05 1.04.1 1.5-.13 1.04-.51.3-.34.83-.87-.3-.27-.11 0-.27-.37-1.81-.08-1.23-.15-2.05.56m17.72 8.89c-.84.02-.44-.02-1.04.48.3.2.14.02.38.23l.33.27c-.26.27-.32.1-.29.6l1.12.03c.58-.8.48-.47.46-1.35-.58-.52-.49-.97-.96-.26"/><path fill="#fefefe" fill-rule="evenodd" d="M34.42 34.84c.7.07.53.04.87-.43-.09-.37-.15-.16-.2-.43-.1-.63.42.2.17-2.13-.12 0-.26-.05-.42-.02-.4.08-.46.27-.45 1.06 0 .65-.03 1.32.03 1.95"/><path fill="#fdc610" fill-rule="evenodd" d="M34.4 37.07c.15.15.38.45.56.52.4.13.54-.12.84-.26 0-.67.06-.24.2-.68-.47-.53.09-.04-.44-.72-.08-.1-.05-.14-.2-.36-1.01.06-1-.05-.96 1.5m3.23 5.66.02.76 1.37.02c.26-.37.65-.7.74-1.13-.33-.3-.03-.13-.44-.28-.57-.2-.4-.34-1.16.1-.39.23-.23.23-.53.53m2.85 2.08c.85.57.87.27 1.04.18.81-.36.17-.22.78-.62.03-.66.12-.57-.23-1.02-1.05-.1-1.54.46-1.59 1.46m-.16-18.42c1.6.03.62.04 1.33-.28.34-.15.11-.02.45-.26v-1.12l-.76-.03c-.65.72-.2 0-.77.53-.4.37-.3.62-.25 1.17m-8.24 1.63.95.02c.51-.7.25 0 .7-.44.3-.3.05-.2.17-.45.18-.36.03.17.29-.4-.53-.42-.35-.3-1.08-.33l-.72.58c-.22.27-.07.16-.19.44-.13.34-.16.02-.12.58m-1.25 5.36c.37.88 1.07.28 1.44-.21.14-.17.32-.26.5-.38-.03-.46 0-.8-.95-.77-.19.23-.3.42-.49.62-.46.49-.5.08-.5.74m1.7 1.19c-.8 2.28.7 1.54.97 1.26.3-.32.07-.08.19-.42.12-.35.07-.07.18-.4l-.42-.64c-.83-.08-.4.02-.92.2m8.38.43-.02.43c.18.13.27.18.44.35l1.26-.03.44-.62-.55-.6h-1.16c-.27.44-.16.18-.41.47m-10.97.83-.03 1.33.76.03.87-.84c-.02-.48-.02-.76-.56-.8-.44-.02-.57.15-1.04.28"/><path fill="#fcfdfe" fill-rule="evenodd" d="M42.66 27.72c.95.1.74-.2.92-.6l.51-.7c.16-.21.04.18.15-.22-.3-.18-.32-.2-.57-.47h-.56c-.44.6-.53 1.18-.45 1.99"/><path fill="#fdc610" fill-rule="evenodd" d="M36.76 38.6c1.98.03 1.43.13 1.95-.3.47-.37.48-.38.1-.85a2.1 2.1 0 0 0-1.82.55c-.32.27-.26.18-.23.6M35.5 26.72c.79.5.74 1.19 1.3.64l.64-1.3c-.43-.53-.69-.46-1.54.15Zm-5.36 11.64c-.05.47-.89 1.55.22 1.38.55-.08 1.38-.73 1.16-1.26l-.33-.35c-.77 0-.29.16-1.05.23m-2.36-3.03c.43 1.04 1.6.12 2.08-.3l-.27-.48-1.79.03zm15.09-11.47-.04.5.58.57c.18.22.52.38.77.45.62-.64.1-.82.04-1.57-.78-.07-.21-.24-1.12-.22zM40 32.6c.73.59-.14.47.61 1.26l1-.55v-.96c-.35-.21-.5-.31-1-.35-.27.3-.27.42-.61.6m-13.4 1.05c.33-.15.31-.16.44-.46.17-.41-.18-.03.32-.38l.01-.65-.47-.34a7 7 0 0 0-.87.38c-.22.6.02 1.2.57 1.45m4.99 11.28c.57-.6.46-.02 1.17-.62.7-.6.38-.7.12-1.28-.24.33-.08.16-.47.33l-.84.5-.21.33c-.09.38.09.38.23.74m13.6-8.97c1.27.13 1.67-1 1.59-1.28-.1-.34-.47-.31-.78-.33-.91 1.07-.89.64-.8 1.6m-2.38 3.16c.6.38.2-.18.64.43.2-.4.38-.6.77-.76v-1.34c-.69-.03-.47.2-.84.56-.02.02-.49.17-.57 1.1m-2.8-.73c-.07.64-.09.27-.23.73.22.3.1.04.22.42.7.07.2.03.75.25.39-.31.35-.27.64-.68-.11-.42-.16-.11-.23-.74-.57-.1-.08-.17-.55-.21-.57-.04-.03.1-.6.23m-7.23-1.64c-.08.75-.1.2-.35.76.62.42.37.62.77.63.38 0 .29-.3.7-.64.31-.28.1.09.27-.32l-.42-.65c-.86-.01-.29.14-.97.22m.89-6.37c0 .42-.07.42.11.76.07 0 .13.3.75.18.05-.01.7-.28.77-.32v-.45c-.42-.25-.25 0-.5-.25-.45-.46-.05-.51-.75-.22-.43.18-.18-.2-.38.3m2.85 9.53v.75l.86.02c.07-.11.33-.38.36-.45.28-.48-.25-.25.39-.52-.3-.3-.12-.02-.43-.45h-.66c-.19.3-.3.37-.52.66m3.78 7.56c.85.1 1.3-.5 1.28-1.33-.45-.13-.33-.21-.77-.28-.42.45-.18.14-.4.67-.18.45-.15.4-.1.94m1.62-26.66c-.02.53-.02.3.33.5.15.08.41.28.5.3.62.2.85-.11 1.17-.5-.12-.07-.37-.42-.48-.56zM36 44.77c.06 1.03.39.67.85 1.09.32-.4.15-.07.6-.34-.05-.82-.31-.73-.81-1.27-.24.23-.36.23-.64.52m7.37-11.97-.03.62 1.48.03c.16-.2.32-.35.33-.65-.42-.37-.22-.26-.86-.27-.61 0-.53-.1-.92.27m-2.46 8.5.98.3.04.67c.8.1-.02.03.63.33 1.32-.5-.64-1.63-.91-1.62a8 8 0 0 0-.74.32M37.85 34v.53c1.21.12.97.06 1.75-.52-.6-.44-.08.03-.47-.57h-.65zm-8.58-2.68c.38-.37.84-.62.8-1.22l-.95-.02c-.46.65-.7.22-.6 1.22zm-.55 9.86.02 1.38.87.03.09-.5.2-.04-.24-.72-.05-.06-.25-.25c-.27.13-.26.17-.64.16m18.62-15.5.81.02c.21-.46.28-.36.58-.63l-.02-.5c-.24-.12-.27-.18-.45-.27-.61.16-.99.7-.92 1.39m-5.43 3.23c-.43.2-.33.13-.27.73q.95.1 1.18-.73l-.33-.67h-.45c-.18.35-.1.24-.13.67"/><path fill="#313131" fill-rule="evenodd" d="M55.43 26c.42.28.5.12.97-.07.65-.26.45-.12.89-.44l.18-.12c.16-.16.11-.24.12-.3-.4-.2-.92.07-1.48.36-.35.18.03 0-.22.18-.42.26-.33-.11-.47.4"/><path fill="#fdc610" fill-rule="evenodd" d="M37.47 36.67c.51.05 1.23.13 1.38-.42-.07-.27-.48-.6-.76-.66-.53.2-.68.47-.62 1.08m3.78.31-.04.6c1.29.13 1.23.08 1.62-.24l-.27-.4c-.64-.04-.29-.2-1.03-.25z"/><path fill="#353534" fill-rule="evenodd" d="M59.98 38.84c.66.03 1.57.16 1.89-.36q-.28-.42-.9-.37l-1.04.28z"/><path fill="#313131" fill-rule="evenodd" d="m50.03 10.8-.65.06c-.18.56-.27.05-.22.7.6.05.7-.07 1.1-.43.62-.57.53-.64.5-.97l-.68-.02Zm-1.09-7.38h-.6c-.2.26-.06.08-.2.4-.46.02-1.06.35-1.15.82.19.12.27.2.62.09.38-.13.53-.53.77-.66l.55-.27Z"/><path fill="#fdc610" fill-rule="evenodd" d="m31.58 40.59.27.4 1.08-.02.02-.98-.78-.03c-.26.4-.3.29-.59.64m-.4 7.1c0 .4-.05.69.09.99.48-.24.02-.1.3-.26.2-.12.2-.07.48-.06.14-.27.25-.6.36-.84-.35-.27-.24-.24-.73-.23zm18.17-18.57v.52a1.25 1.25 0 0 0 1.38-1.37c-.49-.03-.3.16-1.05.58a1 1 0 0 0-.33.27m-15.86 9.63c.86.6 1.07.52 1.62.15a1 1 0 0 0-.43-.51l-.56-.27c-.32.15-.4.36-.63.63"/><path fill="#fefefe" fill-rule="evenodd" d="M25.29 36.76c-.14.45-.28.6-.23 1.15l1.25-.02c.03-.37-.1-.6-.4-.84z"/><path fill="#fdc610" fill-rule="evenodd" d="M21.13 39.56c.58-.58.23-.9 0-1.24-.23.2-.11.16-.28.27-.48.34-.67.03-.57.95zm2.77-1.46c.27-.24.62-.5.82-.94-.41-.94-1.12-.24-1.1.67zm14.49-15.47c.77.03.49.1.88-.51.29-.45.33.06.28-.65-.36-.03-.68-.05-.9.23a1.4 1.4 0 0 0-.26.93"/><path fill="#333432" fill-rule="evenodd" d="M55.27 39.49c.4.17 1.1.1 1.57.06.17-.98-.58-.65-.73-.6-.47.17-.76-.03-.84.55"/><path fill="#fdc610" fill-rule="evenodd" d="M34.42 23.55q.6-.01.92-.4c.42-.48.49-.15.44-.76l-.54-.03c-.25.26-.22.23-.51.48-.31.27-.35.3-.31.7"/><path fill="#333432" fill-rule="evenodd" d="M59.43 39.05c.26-.22.32-.33.26-.72l-.56-.01c-.31.34.08.27-.5.3-.34.04-.39-.06-.74.07l.01.35z"/><path fill="#fdc610" fill-rule="evenodd" d="m50.06 34.13.97.02c.02-.2.08-.33 0-.54l-.04-.08c-.28-.53-.68-.38-.91-.36Zm-14.26.1c.2.13.46.26.66.3.4-.51.72-.43.22-1.05l-.54-.04c-.14.25-.3.49-.34.8m-18.62-2.55c.14.08.7.3.9.34l.28-.26.04-.63-.87-.03c-.34.47-.23-.1-.35.58"/><path fill="#313131" fill-rule="evenodd" d="M46.71 15.87c.47-.13.1.06.4-.26l.2-.3c.18-.53.23-.5.19-.87-.53-.06-.55 0-.72.44-.13.35-.3.6-.07.99"/><path fill="#fdc610" fill-rule="evenodd" d="m44.98 42.25 1.03.04c.35-.45.11-.06.27-.46.2-.46-.06-.02.31-.38-.31-.12-.17-.02-.39-.27-.7.72-.32.2-.74.5l-.2.22c-.14.16-.16.18-.28.35m2.05-4.6c-.06.7-.24.32-.2.95.33-.18-.05-.14.85-.46.44-.14.59-.12.5-.7-.77-.04.19.07-1.15.2"/><path fill="#313131" fill-rule="evenodd" d="M10.21 28.89c.52.23.53.29.86.27-.15-.41-.27-.25-.44-.7-.74-.03-1.27-.58-1.38.27.5.1.48-.04.96.16"/><path fill="#fdc610" fill-rule="evenodd" d="M29.39 28.13c.26.15.23.1.49.2.31.13 0 .14.47.1.3-.34.47-.75-.11-.87-.46-.1-.78.15-.85.57m6.41 7.08c.06.38.1.34.34.59q.59-.1.95-.54l.15-.26c-.37-.21-.36-.16-.7-.02-.45.19-.36-.01-.74.23m-7.71 11.32.34.25c.95-.27.7-1.18-.32-1.1z"/><path fill="#333432" fill-rule="evenodd" d="M32.03 9.92c-.2.43-.5.33-.5.89l.72.04c.05-1.57.27-.6.2-1.6l-.4-.01z"/><path fill="#fdc610" fill-rule="evenodd" d="M23.55 34.56c.45-.16.3-.15.46-.52.23-.52.25.22.27-.56-1.07-.1-.86.39-1.19.8zM34.39 18.3c.37.14.32.04.64.08.65.09.14.46 1.18-.1-.41-.34-.12-.3-.76-.3-.34 0-.71-.01-1.05.05zM26.94 27c-.12.38-.1.64-.05 1.03.64.04.54-.2.7-.88.08-.28.07.13.1-.3-.6 0-.32-.05-.75.16m5.14 12.22h.85l.02-.87c-.48-.04-.48-.13-.73.15-.18.22-.16.49-.14.72"/><path fill="#fdc90f" fill-rule="evenodd" d="M36.93 47.74c.3-.14.19-.03.48-.2l-.03-.4-.63-.01c-.4.67-.56.03-.5.85l.58.04z"/><path fill="#fdc610" fill-rule="evenodd" d="m43.95 47.33.52.39c.51-.32.57-.36.39-.58l-.1-.1-.04-.03c-.18-.18-.1-.18-.32-.22q-.22-.02-.42 0z"/><path fill="#313131" fill-rule="evenodd" d="M52.69 1.99h.92v-.68l-.88-.03Z"/><path fill="#fdc610" fill-rule="evenodd" d="M30.13 24.65v.53c.47.02.36.07.65-.28.34-.42.35-.1.32-.57-.48-.06-.7-.02-.98.32"/><path fill="#333432" fill-rule="evenodd" d="M63.6 38.14c.2-.17.3-.24.26-.53h-.97c-.19.22-.35.39-.27.73.36-.15-.12-.2.98-.2"/><path fill="#313131" fill-rule="evenodd" d="M47.53 14.2c.66.06.74-.38.68-.98-.43-.06-.35-.11-.56.18-.22.3-.17.4-.12.8"/><path fill="#fdc610" fill-rule="evenodd" d="M23.83 27.3c.76.07-.02.14.9-.4-.2-.6-.5-.57-.92-.23zm2.93 11.92c.17-.26.32-.35.58-.46-.51-.4-.24-.43-.86-.43l-.33.44z"/><path fill="#333432" fill-rule="evenodd" d="M25 10.03c.63.68.19.88.95.8v-.3l-.53-.15c.1-.93.36 0 .31-.81l-.44-.05c-.2.44.1.17-.29.5"/><path fill="#fdc610" fill-rule="evenodd" d="M21.7 31.49h.95l.02-.66c-.15 0-.3-.08-.54 0l-.07.05-.27.25c-.16.27-.08-.05-.09.35"/><path fill="#fdc90f" fill-rule="evenodd" d="M25.61 29.16c-.52.1-.6.37-.55.92l.64-.02c.04-.43.1-.56-.1-.9"/><path fill="#fdc610" fill-rule="evenodd" d="m26.85 24.57.36.46c.2-.3.17-.26.16-.68 0-.63.07-.4-.26-.56-.27.13-.2-.23-.26.78"/><path fill="#fdc90f" fill-rule="evenodd" d="m23.76 24.67-.01-.84-.6-.01-.02.82z"/><path fill="#fdc610" fill-rule="evenodd" d="m45.91 50.27.65.06.01-.9c-.63-.01-.32-.1-.52.27-.1.18-.16.27-.14.57"/><path fill="#313131" fill-rule="evenodd" d="M60.62 22.95c.37.42.03.36.54.44.27-.16.42-.36.37-.72l-.65-.02z"/><path fill="#2c2d2e" fill-rule="evenodd" d="M54.23 2.74c.37-.1.17-.14.46-.3.38-.2.3.26.36-.35-.26-.16-.56-.1-.9-.08-.06.4-.1.43.08.73"/><path fill="#313131" fill-rule="evenodd" d="m45.39 16.75.63.02.3-.33-.3-.42c-.6.5-.72-.12-.63.73"/><path fill="#333432" fill-rule="evenodd" d="M35.51 9.22h.5v-.88l-.5-.01z"/><path fill="#2f2e2e" fill-rule="evenodd" d="M59.52 18.89v.7l.7.02c.05-.8.03-.26-.38-.72z"/><path fill="#313131" fill-rule="evenodd" d="M18.61 5.42c.4.08.42.1.74-.06-.18-.83-.53-.61-.73-.57Z"/><path fill="#2f2e2e" fill-rule="evenodd" d="M51.07 1.5v.7h.7c.05-.78.03-.25-.37-.7Z"/><path fill="#333432" fill-rule="evenodd" d="m20.95 7.56.72.03v-.66c-.38-.08-.23-.1-.5.09-.28.18-.24.15-.22.54"/><path fill="#2f2e2e" fill-rule="evenodd" d="M53.59 4.64c.17.17.21.25.34.44l.36-.3c.22-.14.27.18.23-.41-.7-.1-.5-.1-.93.27"/><path fill="#333432" fill-rule="evenodd" d="M28.97 6.78c.47.5.97.4.93-.26l-.65-.05Zm.93-3.4c.49.12.74-.16.72-.63l-.71-.03ZM28.68 4.7c.51.13.7.02 1.04-.26-.36-.25-.17 0-.38-.4l-.19.18c-.48.34-.48-.14-.47.48"/><path fill="#fdc90f" fill-rule="evenodd" d="M38.92 28.74c.34.23.2.29.62.44l-.01-.86-.6-.02z"/><path fill="#fdc610" fill-rule="evenodd" d="M38.7 30.08c.42-.28.33-.15.33-.57l-.85-.02c0 .42.11.55.52.59"/><path fill="#2f2e2e" fill-rule="evenodd" d="M13.81 46.59c.2-.23.15-.31.15-.7-.02-.64.08-.4-.27-.55-.32.24-.1.89.12 1.24"/><path fill="#313131" fill-rule="evenodd" d="M22.87 7.69c.4.45.03.45.71.4l.02-.7c-.64-.01-.35 0-.73.3"/><path fill="#333432" fill-rule="evenodd" d="M13.73 28.2c.4.1.9.07.91-.45h-.9z"/><path fill="#fdc610" fill-rule="evenodd" d="M45.66 22.52c.21.14.18.1.37.2.34.18-.04.15.5.12l.06-.4-.64-.27z"/><path fill="#2f2e2e" fill-rule="evenodd" d="M48.73 5.04h.6c.03-.48-.1-.7-.57-.7z"/><path fill="#313131" fill-rule="evenodd" d="M19.79 6.34c.35.37.2.37.74.33.06-.53-.06-.45-.41-.7z"/><path fill="#353534" fill-rule="evenodd" d="M27.78 8.3c.82-.15.56-.95 0-.87z"/><path fill="#2f2e2e" fill-rule="evenodd" d="M61.96 22.69c.29-.07.26-.11.41-.26.23-.23.17.03.2-.41-.51-.25-.86.19-.61.66"/><path fill="#2c2d2e" fill-rule="evenodd" d="M9.78 25.42a4 4 0 0 0-.04.57c.03.5-.04.28.2.45.65-.3.02-.97-.16-1.02"/><path fill="#313131" fill-rule="evenodd" d="M62.28 18.88c.55.06.43-.07.71-.4l-.3-.31c-.44.42-.46 0-.41.7"/><path fill="#333432" fill-rule="evenodd" d="M53.08 39.75c.08-.5-.17-.83-.69-.66l.02.4c.18.08.21.06.38.12.26.1-.03.06.3.14"/><path fill="#313131" fill-rule="evenodd" d="M28.07 12.23c.52.13.22.06.6-.22l-.21-.33c.14-.5.12-.15.22-.5l-.4-.01v.59c-.08.55-.04.09-.21.47"/><path fill="#333432" fill-rule="evenodd" d="M31.31 3c.3.33.18.5.74.38.02-.44-.13-.5-.46-.66z"/><path fill="#2c2d2e" fill-rule="evenodd" d="M48.94 3.42h.7v-.48l-.67-.03Z"/><path fill="#333432" fill-rule="evenodd" d="M30.81 12.66c.2.19.36.32.67.33.18-.5.05-.4-.21-.7q-.32.13-.46.37m-6.82-3.68.47.06.07-.7-.52-.02zm31.05 30.77-.03-.52-.69.07.02.45z"/><path fill="#313131" fill-rule="evenodd" d="m34.78 5.72.72.05.01-.48-.72-.02Zm24.74 18.32.67.06.04-.51-.67-.02z"/><path fill="#2f2e2e" fill-rule="evenodd" d="M58.31 24.68c.48.05.74-.08.67-.58-.47-.05-.68.1-.67.58M53.64 4.02l.14-.05c.03-.02.17-.1.2-.1.21-.2.16.02.13-.42l-.67-.03c-.05.42.02.32.2.6"/><path fill="#313131" fill-rule="evenodd" d="M16.27 29.03c.15.19.33.4.6.48.27-.46.15-.4-.16-.76z"/><path fill="#353534" fill-rule="evenodd" d="M35.15 7.39c.5 0 .04.1.68-.4-.14-.1-.34-.24-.47-.3-.25.3-.37.25-.21.7"/><path fill="#fdc90f" fill-rule="evenodd" d="M38.36 19.07c.08.17-.02.36.52.22a.6.6 0 0 0 .36-.36c-1.07-.14-.78.08-.88.14"/><path fill="#333432" fill-rule="evenodd" d="M30.83 19.09c.44.02.7-.06.7-.47l-.7-.03z"/><path fill="#fdc90f" fill-rule="evenodd" d="m25.4 41.9-.65.02c0 .39.13.37.42.67.11-.28.22-.36.23-.7"/><path fill="#333432" fill-rule="evenodd" d="m31.99 6.89.07-.68-.52-.02c-.03.45.04.6.45.7"/><path fill="#2f2e2e" fill-rule="evenodd" d="M5.48 45.79c-.22-.35-.15-.44-.68-.45v.5c.33.04.4.07.68-.04"/><path fill="#313131" fill-rule="evenodd" d="M33.67 14.87c.4.13.42.12.75-.05l-.3-.4c-.28.06-.42.13-.45.45"/><path fill="#353534" fill-rule="evenodd" d="m25.69 7.25.31.35.38-.31-.35-.43Z"/><path fill="#333432" fill-rule="evenodd" d="m22.68 6.44.62.03V6q-.56-.1-.62.43"/><path fill="#313131" fill-rule="evenodd" d="M32.96 7.35c.44.12.6-.08.71-.43-.4-.07-.68.03-.71.43"/><path fill="#363736" fill-rule="evenodd" d="m28.06 13.79.28.42c.27-.2.07-.14.37-.41l-.35-.31z"/><path fill="#2f2e2e" fill-rule="evenodd" d="M8.43 45.12c-.15.33-.12.33-.07.74h.33c.11-.46.04-.45-.27-.74"/><path fill="#313131" fill-rule="evenodd" d="m33.15 3.59.52.03v-.46l-.5-.02z"/><path fill="#2c2d2e" fill-rule="evenodd" d="m18.86 44.66-.26-.16-.39.02c.1.57-.08.35.58.4z"/><path fill="#2c2d2b" fill-rule="evenodd" d="m48.51 13.19.4-.17c0-.71.1-.37-.26-.51-.16.12-.1-.03-.15.25z"/><path fill="#2f2e2e" fill-rule="evenodd" d="M22.89 2.36v-.32L22.18 2c.12.4.3.46.71.36"/><path fill="#313131" fill-rule="evenodd" d="M28.13 9.22h.3q.15-.45-.3-.7a.8.8 0 0 0 0 .7"/><path fill="#333432" fill-rule="evenodd" d="M35.31 11.35q.3-.12.52-.31a.6.6 0 0 0-.53-.35Z"/><path fill="#313131" fill-rule="evenodd" d="M13.23 26.65c.1.19-.07.12.25.29.33.18.05.1.44.07l.01-.37z"/><path fill="#8b7546" fill-rule="evenodd" d="m29.91 42.05-.21.04-.09.5-.87-.03-.02-1.38c-.13.35-.1 1-.03 1.42l.95.05c.25-.5-.13-.2.27-.6"/><path fill="#fdc90f" fill-rule="evenodd" d="m20.73 29.85-.07-.36c-.68.04-.43-.1-.6.27.29.12.3.08.66.1"/><path fill="#2c2d2b" fill-rule="evenodd" d="M51.31 9.74c.24-.15.27-.16.1-.51h-.3c-.1.58-.11.39.2.5"/><path fill="#2c2d2e" fill-rule="evenodd" d="M9.77 26.79c-.16-.22-.18-.27-.53-.1l.08.35c.63 0 .32.08.45-.25"/><path fill="#2c2d2b" fill-rule="evenodd" d="M51.31 5.27c.24-.16.26-.18.1-.52l-.22-.01c-.28.4-.2.4.12.53"/><path fill="#2f2e2e" fill-rule="evenodd" d="M24 2.09v.28l.52.02v-.35c-.33-.07-.28-.11-.52.06"/><path fill="#333432" fill-rule="evenodd" d="M25.95 13.7h.35l.06-.47-.41-.02z"/><path fill="#313131" fill-rule="evenodd" d="m64.9 37.62-.02-.42-.48.07.02.33Z"/><path fill="#8b7546" fill-rule="evenodd" d="m23.76 24.67-.62-.03v-.82h.6zm0 0c.11-.26.08-.55.04-.88l-.72-.06-.02.97z"/><path fill="#333432" fill-rule="evenodd" d="M32.46 18.89c.32-.05.43-.2.5-.48l-.5-.01zm-20.13 8.07-.03-.33-.51.07.01.34Z"/><path fill="#2c2d2b" fill-rule="evenodd" d="m15.83 43.76-.47.05c.09.53-.13.33.37.4z"/><path fill="#947b44" fill-rule="evenodd" d="M32.05 48.37c-.29-.01-.27-.06-.49.06-.27.16.19.02-.3.26-.13-.3-.08-.6-.08-1-.12.3-.1.66-.05 1 .5.14.25.03.45-.13l.13-.1z"/><path fill="#313131" fill-rule="evenodd" d="m34.37 13.09.33.43.1-.7c-.27.03-.2.03-.43.26"/><path fill="#363733" fill-rule="evenodd" d="M13.53 29.25c-.22-.14-.29-.13-.52-.01.06.08-.18.27.28.26.35 0 .22-.13.24-.25"/><path fill="#2c2d2b" fill-rule="evenodd" d="M21.32 5.76h.32c0-.36.03-.27-.3-.51-.14.26-.14.22-.02.5"/><path fill="#292928" fill-rule="evenodd" d="M11.68 44.06c.15-.35.17-.22-.2-.56-.2.4-.2.43.2.56"/><path fill="#2f2e2e" fill-rule="evenodd" d="m24.53 6.48.53-.41c-.3-.14-.1-.15-.54-.06Z"/><path fill="#313131" fill-rule="evenodd" d="M28.09 10.65c.28-.13.33-.16.4-.41-.24-.16-.1-.12-.41-.06zm5.37-5.24.42.04v-.36l-.41-.02Z"/><path fill="#353534" fill-rule="evenodd" d="m27.76 6.84.53.04c-.1-.28-.24-.4-.52-.36Z"/><path fill="#d2d6d8" fill-rule="evenodd" d="M69.11 24.54q.47 0 .47-.47c-.62.2-.47.34-.47.47"/><path fill="#81807e" fill-rule="evenodd" d="M48.51 13.19v-.43c.04-.28-.02-.13.14-.25.35.14.26-.2.26.5.13-.3.1-.17.04-.53l-.49-.04c-.12.32-.14.52.05.74"/><path fill="#2f2e2e" fill-rule="evenodd" d="m61.25 19.12.3-.03c-.08-.22-.18-.42-.37-.5-.08.42-.1.24.07.53"/><path fill="#878887" fill-rule="evenodd" d="m15.83 43.76-.1.46c-.5-.08-.28.12-.37-.41zm0 0c-.24-.13-.11-.1-.5-.05l.02.57.55-.06z"/><path fill="#262826" fill-rule="evenodd" d="M10.36 25.23c.2-.35.18-.2 0-.56-.31.24-.32.32 0 .56"/><path fill="#363736" fill-rule="evenodd" d="m25.43 12.44.51.03-.02-.4c-.22.1-.42.2-.5.37"/><path fill="#886a48" fill-rule="evenodd" d="M20.73 29.85c-.36-.01-.38.03-.67-.1.17-.36-.08-.22.6-.26zm0 0 .04-.36-.73-.06-.05.4a1 1 0 0 0 .73.02"/><path fill="#333432" fill-rule="evenodd" d="m26.29 3.42.07-.46-.42-.03a.8.8 0 0 0 .35.49"/><path fill="#313131" fill-rule="evenodd" d="m32.25 15.12.5.03-.44-.52z"/><path fill="#947b44" fill-rule="evenodd" d="M38.92 28.74v-.44l.6.02.02.86c.12-.3.1-.56.03-.92l-.7-.02z"/><path fill="#878887" fill-rule="evenodd" d="m18.86 44.66-.07.27c-.66-.06-.49.16-.58-.4l.4-.03c-.21-.12.06-.15-.43-.07l.02.56.73-.05c.07-.43.01-.15-.07-.28"/><path fill="#393c3a" fill-rule="evenodd" d="M10.89 45.59c-.1-.42-.2-.32-.44-.1.1.06 0 .38.44.1"/><path fill="#373a38" fill-rule="evenodd" d="M12.52 28.54c-.3-.2-.32-.13-.43.08.2.2.32.34.43-.08"/><path fill="#2c2d2b" fill-rule="evenodd" d="M50.38 3.1c.45.03.4.1.38-.36-.28.05-.3.12-.38.37"/><path fill="#313131" fill-rule="evenodd" d="M32.03 16.79c.21.3.15.3.36.47l.07-.47z"/><path fill="#2a2b29" fill-rule="evenodd" d="m44.45 18.17.4-.14-.1-.13c-.2-.26.03-.1-.25-.22z"/><path fill="#313131" fill-rule="evenodd" d="M27.19 18.62c.17-.14.3-.03.12-.43-.39.1-.38.1-.12.43"/><path fill="#242524" fill-rule="evenodd" d="M9.05 44.58c.52.13.38.16.39-.33-.28.1-.25.1-.39.33"/><path fill="#292928" fill-rule="evenodd" d="M22.68 4.13c.11.35.12.27.43.1-.1-.14 0-.38-.43-.1"/><path fill="#949493" fill-rule="evenodd" d="m49.31 33.46.36-.03v-.5c-.39-.04-.45-.08-.72.06.37 0 .37-.04.67.1-.1.45.15.14-.3.37"/><path fill="#434343" fill-rule="evenodd" d="M24.5 3.92c.23.22.28.23.55 0-.26-.18-.3-.17-.55 0"/><path fill="#242524" fill-rule="evenodd" d="M8.93 24.5c.2-.37.22-.01 0-.43-.4.25-.28.24 0 .44"/><path fill="#333432" fill-rule="evenodd" d="M52.19 4.43c.19.14-.21.1.23.13.4 0 .2-.05.3-.12-.3-.2-.26-.16-.54 0"/><path fill="#313131" fill-rule="evenodd" d="M28.33 15.12c.24-.16.3-.34.01-.5-.13.26-.1.25 0 .5m-2-.12c.24.17-.24.12.26.14.34 0 .2-.06.27-.13-.29-.18-.27-.11-.53 0"/><path fill="#8b7546" fill-rule="evenodd" d="m36.93 47.74.54-.05-.05-.63-.67.07h.63l.03.42c-.3.16-.17.05-.47.19"/><path fill="#262826" fill-rule="evenodd" d="M20.13 4.36c.2-.28.22-.25-.01-.53-.15.29-.14.25 0 .53"/><path fill="#d2d6d8" fill-rule="evenodd" d="M65.29 42.08c.45.1.12.1.35-.03-.12-.3.17-.16-.31-.21z"/><path fill="#393c3a" fill-rule="evenodd" d="M21.25 2.8c.37.34.2.15.46 0-.25-.1-.09-.26-.46 0"/><path fill="#252627" fill-rule="evenodd" d="m17.13 45.16-.14-.16c-.2.13-.22-.24-.16.3.55.05.16.03.3-.14"/><path fill="#434343" fill-rule="evenodd" d="M16.86 44.45c.24-.15.23-.25 0-.44-.17.25-.15.2 0 .44"/><path fill="#44413d" fill-rule="evenodd" d="M34.37 8.9c.25.26.18.24.45 0-.25-.15-.18-.18-.45 0"/><path fill="#292928" fill-rule="evenodd" d="M8.34 26.89c.24.26.13.22.42.03-.22-.1-.06-.2-.42-.02"/><path fill="#878482" fill-rule="evenodd" d="M17.13 45.16c-.14.17.25.19-.3.14-.06-.54-.04-.17.16-.3l-.24-.07.03.46.45-.05z"/><path fill="#242524" fill-rule="evenodd" d="M12.19 26.14c.21-.38.23-.02 0-.44-.2.36-.14.13 0 .44"/><path fill="#595856" fill-rule="evenodd" d="M27.75 3.72c.2.19.05.27.36 0-.24-.18-.12-.18-.36 0"/><path fill="#333432" fill-rule="evenodd" d="M26.86 16.96c.26-.15.37-.24.06-.4z"/><path fill="#3c3c3a" fill-rule="evenodd" d="M33.82 11.16c.1-.26.15-.18-.1-.3-.12.26-.13.18.1.3"/><path fill="#2f2e2e" fill-rule="evenodd" d="M7.12 45.09c.32.15.16.05.32-.02-.38-.26-.1-.23-.32.02"/><path fill="#262826" fill-rule="evenodd" d="M14.02 42.99c-.16.3-.12.08 0 .34.27-.58.07-.21 0-.34"/><path fill="#242524" fill-rule="evenodd" d="M15.44 30.07c-.16.3-.1.1 0 .34.29-.6.09-.18 0-.34"/><path fill="#262826" fill-rule="evenodd" d="M17.63 28.86c.06-.25-.16-.1-.16-.06q.06.42.16.06m-2.13-1.22c.06-.25-.16-.1-.16-.06q.06.42.16.06"/><path fill="#dfe4e6" fill-rule="evenodd" d="m68.86 19.1.02-.22-.2-.01c.06.29-.08.13.18.23"/><path fill="#595856" fill-rule="evenodd" d="M28.05 5.14c.17.16-.06.28.27 0-.29-.2-.06-.14-.27 0"/><path fill="#242524" fill-rule="evenodd" d="M16.15 46.05c-.16.3-.12.06 0 .34l.08-.18c.08-.46.05.06-.08-.16"/><path fill="#4e4f4d" fill-rule="evenodd" d="M12.8 44.44c.16.12-.26.24.22.18-.08-.3.06-.13-.22-.18"/><path fill="#4c4b4b" fill-rule="evenodd" d="M32.73 13.07c.2.19-.03.25.26 0-.19-.11.03-.17-.25 0"/><path fill="#363736" fill-rule="evenodd" d="M8.23 23.62c.12-.23.12-.06-.01-.27-.11.17-.17.04 0 .27"/><path fill="#dadbdd" fill-rule="evenodd" d="m69.06 19.3.03-.22-.23.02z"/><path fill="#434343" fill-rule="evenodd" d="M15.35 41.4c.1.07-.09.3.25.08z"/></svg>